<svg id="Layer_1" data-name="Layer 1" xmlns="http://www.w3.org/2000/svg" viewBox="0 0 1366 768"><defs><style>.cls-1{fill:#ba97e6;}</style></defs><path class="cls-1" d="M647.1,606.05A17.57,17.57,0,0,0,633,613c-3,4.58-10,8.33-15.53,8.33H603.69c-5.5,0-12.49-3.75-15.54-8.33a17.79,17.79,0,0,0-28.26,0c-3,4.58-10,8.33-15.54,8.33H531.77c-5.5,0-11.43-2.62-13.18-5.83s-9.32-12.65-9.32-18.15v-3.66c0-5.5,3.62-12.68,8-16a18.07,18.07,0,0,0,0-26.62c-4.42-3.27-8-10.45-8-15.95v-3.39c0-5.5,3.62-12.68,8-16a16.94,16.94,0,0,0,5.85-13.3,20.32,20.32,0,0,0-40.64,0,17.16,17.16,0,0,0,6.16,13.55c4.46,3.22,8.11,10.35,8.11,15.85v3.11c0,5.5-2.42,11.44-5.37,13.21s-12.07,9-17.57,9H457c-5.5,0-11.63-2.38-13.62-5.3s-9.83-11.56-9.83-17.06v-2.85c0-5.5,3.7-12.56,8.22-15.69a17.36,17.36,0,0,0,6.56-13.84,20.32,20.32,0,1,0-40.64,0c0,8.78,5.46,13,5.46,13,4.36,3.36,7.92,10.6,7.92,16.1v3.76c0,5.5-3.56,12.75-7.92,16.1,0,0-5.46,4.2-5.46,13A20.32,20.32,0,0,0,428,584.78,17.42,17.42,0,0,0,442,578c3.1-4.55,10.13-8.27,15.63-8.27h15.64c5.5,0,11.56,2.71,13.47,6s10.07,12.57,10.07,18.07v2.92c0,5.5-3.72,12.53-8.26,15.62a17.44,17.44,0,0,0-6.75,14,20.32,20.32,0,0,0,20.32,20.32c8.58,0,12.63-5.05,12.63-5.05,3.44-4.29,10.75-7.8,16.25-7.8h14.16c5.5,0,12.81,3.51,16.25,7.8,0,0,4.05,5.05,12.63,5.05s12.63-5.05,12.63-5.05c3.44-4.29,10.76-7.8,16.26-7.8h15.31c5.5,0,12.82,3.51,16.26,7.8,0,0,4,5.05,12.62,5.05a20.32,20.32,0,0,0,0-40.64Z"/><path class="cls-1" d="M427.28,606.05c-8.24,0-12,4.39-12,4.39-3.58,4.17-11,7.59-16.51,7.59H386.19c-5.5,0-12.93-3.42-16.51-7.59,0,0-3.76-4.39-12-4.39a20.32,20.32,0,1,0,0,40.64,17.13,17.13,0,0,0,13.5-6.09c3.23-4.45,10.37-8.09,15.87-8.09h10.86c5.5,0,12.64,3.64,15.87,8.09a17.13,17.13,0,0,0,13.5,6.09,20.32,20.32,0,1,0,0-40.64Z"/><path class="cls-1" d="M286.92,606.05c-8.57,0-12.6,5-12.6,5-3.45,4.28-10.77,7.79-16.27,7.79H246.18c-5.5,0-12.82-3.51-16.26-7.79,0,0-4-5-12.6-5a20.32,20.32,0,1,0,0,40.64,17.57,17.57,0,0,0,14.15-7c3-4.59,10-8.34,15.53-8.34h10.24c5.5,0,12.49,3.75,15.53,8.34a17.57,17.57,0,0,0,14.15,7,20.32,20.32,0,0,0,0-40.64Z"/><path class="cls-1" d="M273.67,364.61c-2.19,2.56-8.49,4.65-14,4.65H246c-5.5,0-13.08-3.28-16.84-7.3,0,0-3.33-3.55-11.13-3.55a20.32,20.32,0,1,0,0,40.63,17.69,17.69,0,0,0,14.3-7.23c3-4.61,9.95-8.39,15.45-8.39h10.1c5.5,0,11.81,3.09,14,6.87s11.87,12.87,11.87,18.37v2c0,5.5-3.84,12.35-8.54,15.21a18,18,0,0,0-7.92,14.74,20.32,20.32,0,0,0,40.63,0c0-8.14-4.17-11.79-4.17-11.79-4.13-3.62-7.52-11.09-7.52-16.59V407.1c0-5.5,2.18-11.71,4.84-13.8s10.79-9.88,16.29-9.88h11.26c5.5,0,12.45,3.78,15.45,8.39a17.69,17.69,0,0,0,14.3,7.23,20.32,20.32,0,0,0,20.32-20.32c0-8.78-5.47-13-5.47-13-4.36-3.35-7.93-10.59-7.93-16.09v-3.75c0-5.5,2.3-11.49,5.12-13.31s11.62-9.08,17.12-9.08h11.27c5.5,0,11.57,2.43,13.48,5.39s9.58,11.8,9.58,17.3v3.15c0,5.5-3.64,12.64-8.1,15.87a17.12,17.12,0,0,0-6.11,13.51,20.32,20.32,0,0,0,40.64,0,17,17,0,0,0-5.9-13.34c-4.43-3.27-8.05-10.44-8.05-15.94v-3.35c0-5.5,3.62-12.67,8.05-15.93a18,18,0,0,0,0-26.69c-4.43-3.27-8.05-10.44-8.05-15.94v-3.15c0-5.5,2.59-11.68,5.76-13.73s12-10.38,17.5-10.38h15.56c5.5,0,11.56,2.74,13.47,6.08S496.79,279,496.79,284.5v2.91c0,5.5-3.65,12.63-8.11,15.85a17.16,17.16,0,0,0-6.16,13.55,20.32,20.32,0,0,0,20.32,20.32,17.55,17.55,0,0,0,14.12-7c3-4.58,10-8.32,15.54-8.32h12.6c5.5,0,12.49,3.74,15.54,8.32a17.79,17.79,0,0,0,28.24,0c3-4.58,10-8.32,15.55-8.32h13.75c5.5,0,11.53,2.73,13.4,6.07s10,12.72,10,18.22v3.28c0,5.5-3.63,12.66-8.06,15.91a17,17,0,0,0-6,13.4,20.32,20.32,0,1,0,40.63,0,17.08,17.08,0,0,0-6-13.45C657.68,362,654,354.88,654,349.38v-3.22c0-5.5,2.64-11.7,5.87-13.77s12.1-10.55,17.6-10.55H690.1c5.5,0,11.58,2.79,13.52,6.2s10.32,12.73,10.32,18.23v3c0,5.5-3.67,12.6-8.16,15.78a18,18,0,0,0,0,27.37c4.49,3.17,8.16,10.27,8.16,15.77v3c0,5.5-3.67,12.6-8.16,15.78a17.26,17.26,0,0,0-6.33,13.69A20.31,20.31,0,0,0,719.76,461a17.18,17.18,0,0,0,13.58-6.19c3.21-4.47,10.34-8.12,15.84-8.12H759c5.5,0,11.65,2.63,13.66,5.85S783,464.7,783,470.2V473c0,5.5-3.71,12.55-8.24,15.66a17.38,17.38,0,0,0-6.64,13.9,20.31,20.31,0,0,0,20.31,20.31c8.64,0,12.73-5.15,12.73-5.15,3.41-4.31,10.71-7.84,16.21-7.84h7.07c5.5,0,12.79,3.53,16.21,7.84,0,0,4.08,5.15,12.72,5.15s12.72-5.15,12.72-5.15c3.42-4.31,10.71-7.84,16.21-7.84h5.34c5.5,0,12.8,3.53,16.21,7.84,0,0,4.09,5.15,12.73,5.15a20.31,20.31,0,0,0,20.31-20.31c0-8.75-5.38-12.92-5.38-12.92-4.35-3.37-7.9-10.62-7.9-16.12v-3.83c0-5.5,3.55-12.76,7.9-16.13,0,0,5.38-4.17,5.38-12.91s-5.38-12.92-5.38-12.92c-4.35-3.37-7.9-10.63-7.9-16.13v-3.82c0-5.5,2.32-11.54,5.16-13.41s11.6-9.29,17.1-9.29h13.34c5.5,0,12.67,3.62,15.93,8.05A17,17,0,0,0,988.5,399a20.32,20.32,0,1,0,0-40.63c-8.46,0-12.41,4.8-12.41,4.8-3.49,4.24-10.85,7.72-16.35,7.72h-14.4c-5.5,0-12.86-3.48-16.36-7.72,0,0-4-4.8-12.4-4.8a20.31,20.31,0,0,0-20.32,20.31,17.38,17.38,0,0,0,6.63,13.89c4.53,3.12,8.24,10.17,8.24,15.67v2.8c0,5.5-3.71,12.55-8.24,15.67a17.85,17.85,0,0,0,0,27.77c4.53,3.12,8.24,10.17,8.24,15.67V473c0,5.5-2.78,11.67-6.18,13.72s-12.5,10.68-18,10.68h-4c-5.5,0-12.51-3.73-15.58-8.3a17.82,17.82,0,0,0-28.1,0c-3.07,4.57-10.08,8.3-15.58,8.3h-5.68c-5.5,0-11.44-2.61-13.21-5.8s-9.37-12.58-9.37-18.08v-3.84c0-5.5,2.36-11.57,5.25-13.5s11.62-9.53,17.12-9.53H824c5.5,0,12.62,3.65,15.83,8.12A17.18,17.18,0,0,0,853.37,461a20.32,20.32,0,1,0,0-40.63,17,17,0,0,0-13.28,5.81c-3.28,4.42-10.46,8-16,8h-6.45c-5.5,0-12.69-3.61-16-8,0,0-4.32-5.81-13.28-5.81a16.93,16.93,0,0,0-13.27,5.81c-3.29,4.42-10.47,8-16,8H749c-5.5,0-11.5-2.4-13.34-5.32s-9.25-11.88-9.25-17.38V407.9c0-5.5,2.26-11.4,5-13.11s11.69-8.55,17.19-8.55h10.94c5.5,0,12.82,3.5,16.27,7.79,0,0,4,5,12.59,5a20.32,20.32,0,0,0,20.32-20.32c0-8.74-5.37-12.9-5.37-12.9-4.35-3.37-7.9-10.63-7.9-16.13v-3.84c0-5.5,3.55-12.76,7.9-16.13,0,0,5.37-4.17,5.37-12.91s-5.37-12.9-5.37-12.9c-4.35-3.38-7.9-10.63-7.9-16.13v-3.64c0-5.5,2.36-11.58,5.25-13.5s11.62-9.54,17.12-9.54H824c5.5,0,12.62,3.66,15.83,8.12a18,18,0,0,0,27.16,0c3.21-4.46,10.33-8.12,15.83-8.12h4.38c5.5,0,12.63,3.66,15.84,8.12a17.18,17.18,0,0,0,13.58,6.2,20.31,20.31,0,0,0,20.31-20.32,17.09,17.09,0,0,0-6-13.47c-4.45-3.24-8.09-10.39-8.09-15.89v-3.2c0-5.5,3.64-12.64,8.09-15.88a17.09,17.09,0,0,0,6-13.47,20.31,20.31,0,0,0-20.31-20.32c-8.13,0-11.79,4.17-11.79,4.17-3.62,4.14-11.09,7.52-16.59,7.52h-6.46c-5.5,0-13-3.38-16.59-7.52,0,0-3.65-4.17-11.78-4.17S841.59,177,841.59,177c-3.63,4.14-11.09,7.52-16.59,7.52h-8.19c-5.5,0-13-3.38-16.59-7.52,0,0-3.66-4.17-11.79-4.17a20.32,20.32,0,0,0,0,40.64,17.37,17.37,0,0,0,13.86-6.58c3.12-4.52,10.18-8.23,15.68-8.23h5.86c5.5,0,12.56,3.71,15.69,8.23a17.87,17.87,0,0,0,27.7,0c3.13-4.52,10.19-8.23,15.69-8.23H887c5.5,0,11.53,2.64,13.41,5.85s9.82,12.45,9.82,17.95v3.29c0,5.5-2.25,11.33-5,13S893.47,247,888,247h-6c-5.5,0-12.91-3.44-16.45-7.64,0,0-3.84-4.54-12.16-4.54s-12.16,4.54-12.16,4.54c-3.54,4.2-11,7.64-16.45,7.64H817c-5.5,0-12.9-3.44-16.45-7.64,0,0-3.83-4.54-12.16-4.54a20.31,20.31,0,0,0-20.31,20.32,17.24,17.24,0,0,0,6.31,13.67c4.49,3.18,8.16,10.29,8.16,15.79v2.8c0,5.5-3.67,12.6-8.16,15.78a18,18,0,0,0,0,27.34c4.49,3.18,8.16,10.29,8.16,15.79v3c0,5.5-2.48,11.46-5.52,13.25s-12.2,9.24-17.7,9.24H748.83c-5.5,0-11.5-2.3-13.33-5.11s-9.08-11.6-9.08-17.1V346c0-5.5,3.6-12.71,8-16,0,0,5.67-4.27,5.67-13.16a20.32,20.32,0,0,0-20.32-20.32c-8.58,0-12.63,5.06-12.63,5.06-3.44,4.3-10.75,7.81-16.25,7.81H676.73c-5.5,0-12.81-3.51-16.25-7.81,0,0-4.05-5.06-12.64-5.06s-12.63,5.06-12.63,5.06c-3.44,4.3-10.75,7.81-16.25,7.81H603.65c-5.5,0-12.81-3.51-16.25-7.81,0,0-4-5.06-12.64-5.06s-12.64,5.06-12.64,5.06c-3.43,4.3-10.75,7.81-16.25,7.81H531.73c-5.5,0-11.52-2.23-13.38-4.95s-9.08-11.36-9.08-16.86v-3.19c0-5.5,3.62-12.68,8-15.95a17,17,0,0,0,5.85-13.31,20.32,20.32,0,0,0-20.32-20.32c-8.64,0-12.73,5.17-12.73,5.17-3.42,4.31-10.71,7.84-16.21,7.84H457c-5.5,0-12.79-3.53-16.21-7.84,0,0-4.09-5.17-12.73-5.17A20.32,20.32,0,0,0,407.7,255.1a17.15,17.15,0,0,0,6.11,13.52c4.46,3.22,8.1,10.36,8.1,15.86v2.95c0,5.5-2.57,11.61-5.72,13.57s-12.14,10-17.64,10H387.89c-5.5,0-12.6-3.67-15.77-8.17a17.25,17.25,0,0,0-13.7-6.36,20.32,20.32,0,0,0-20.32,20.32,17.35,17.35,0,0,0,6.54,13.83c4.52,3.13,8.22,10.2,8.22,15.7v2.86c0,5.5-2.22,11.17-4.93,12.6s-12,7.46-17.48,7.46H315.63c-5.5,0-11.2-1.58-12.67-3.51s-6.68-9.9-6.68-15.4v-5.16c0-5.5,3.39-13,7.52-16.59,0,0,4.17-3.66,4.17-11.79a20.31,20.31,0,0,0-20.31-20.32c-8.47,0-12.43,4.82-12.43,4.82-3.49,4.25-10.84,7.73-16.34,7.73H246.83c-5.5,0-12.86-3.48-16.35-7.73,0,0-4-4.82-12.42-4.82a20.32,20.32,0,0,0,0,40.64c8.86,0,13.12-5.64,13.12-5.64,3.32-4.38,10.54-8,16-8H258.5c5.5,0,11.83,2.67,14.08,5.93s11.22,11.8,11.22,17.3v2C283.8,354.28,275.87,362.06,273.67,364.61Z"/><path class="cls-1" d="M197.74,564.46a20.32,20.32,0,1,0,40.63,0,17.24,17.24,0,0,0-6.31-13.67c-4.49-3.18-8.16-10.29-8.16-15.79v-3c0-5.5,2.43-11.41,5.41-13.15s12.16-8.93,17.66-8.93h11.77c5.5,0,12.8,3.52,16.23,7.83,0,0,4.07,5.11,12.69,5.11a20.32,20.32,0,0,0,0-40.63c-8.72,0-12.87,5.33-12.87,5.33-3.38,4.34-10.65,7.89-16.15,7.89H247.07c-5.5,0-11.59-2.37-13.54-5.27s-9.63-11.59-9.63-17.09v-3c0-5.5,3.67-12.6,8.16-15.78a17.26,17.26,0,0,0,6.31-13.67,20.32,20.32,0,1,0-40.63,0c0,8.89,5.69,13.17,5.69,13.17,4.39,3.31,8,10.51,8,16v3.54c0,5.5-3.6,12.71-8,16,0,0-5.69,4.28-5.69,13.18s5.69,13.17,5.69,13.17c4.39,3.31,8,10.51,8,16v3.54c0,5.5-3.6,12.71-8,16C203.43,551.29,197.74,555.57,197.74,564.46Z"/><path class="cls-1" d="M788.43,151.59c8.88,0,13.14-5.64,13.14-5.64,3.32-4.39,10.53-8,16-8h6.6c5.5,0,12.72,3.59,16,8,0,0,4.27,5.64,13.14,5.64S866.51,146,866.51,146c3.31-4.39,10.53-8,16-8h4.87c5.5,0,12.71,3.59,16,8,0,0,4.26,5.64,13.14,5.64S929.72,146,929.72,146c3.31-4.39,10.52-8,16-8h13.59c5.5,0,12.71,3.59,16,8,0,0,4.27,5.64,13.14,5.64,8.24,0,12-4.37,12-4.37,3.58-4.17,11-7.59,16.51-7.59h16.65c5.5,0,12.94,3.42,16.52,7.59,0,0,3.75,4.37,12,4.37s12-4.37,12-4.37c3.58-4.17,11-7.59,16.51-7.59h13.76c5.5,0,12.93,3.42,16.51,7.59,0,0,3.75,4.37,12,4.37a20.32,20.32,0,1,0,0-40.63,17.25,17.25,0,0,0-13.7,6.36c-3.17,4.49-10.27,8.17-15.77,8.17h-11.82c-5.5,0-12.6-3.68-15.77-8.17a17.94,17.94,0,0,0-27.4,0c-3.17,4.49-10.27,8.17-15.77,8.17H1018c-5.5,0-12.6-3.68-15.77-8.17A17.25,17.25,0,0,0,988.5,111c-8.53,0-12.54,5-12.54,5-3.46,4.27-10.8,7.77-16.3,7.77H945.41c-5.5,0-12.83-3.5-16.29-7.77,0,0-4-5-12.54-5s-12.54,5-12.54,5c-3.47,4.27-10.8,7.77-16.3,7.77H882.2c-5.5,0-12.83-3.5-16.29-7.77,0,0-4-5-12.54-5s-12.54,5-12.54,5c-3.46,4.27-10.79,7.77-16.29,7.77h-7.27c-5.5,0-12.83-3.5-16.3-7.77,0,0-4-5-12.54-5a20.32,20.32,0,0,0,0,40.63Z"/><path class="cls-1" d="M627.53,255.1a20.31,20.31,0,0,0,20.31,20.32c8.54,0,12.55-5,12.55-5,3.46-4.28,10.79-7.78,16.29-7.78h14.24c5.5,0,12.83,3.5,16.29,7.78,0,0,4,5,12.55,5a20.32,20.32,0,0,0,20.32-20.32c0-8.88-5.67-13.16-5.67-13.16-4.39-3.31-8-10.52-8-16v-3.55c0-5.5,3.6-12.71,8-16,0,0,5.67-4.28,5.67-13.16S734.41,180,734.41,180c-4.39-3.31-8-10.52-8-16v-3.56c0-5.5,3.6-12.7,8-16,0,0,5.67-4.28,5.67-13.16A20.32,20.32,0,0,0,719.76,111a17.6,17.6,0,0,0-14.16,7c-3,4.59-10,8.34-15.52,8.34H677.53c-5.5,0-12.49-3.75-15.53-8.34a17.57,17.57,0,0,0-14.16-7,20.31,20.31,0,0,0-20.31,20.32,17.11,17.11,0,0,0,6.06,13.48c4.45,3.23,8.09,10.38,8.09,15.88v3.19c0,5.5-3.64,12.65-8.09,15.88a18,18,0,0,0,0,27c4.45,3.23,8.09,10.38,8.09,15.88v3.19c0,5.5-3.64,12.65-8.09,15.88A17.11,17.11,0,0,0,627.53,255.1Zm35.25-74.83c-4.35-3.37-7.91-10.62-7.91-16.12v-3.83c0-5.5,2.19-11.39,4.85-13.1s11.48-8.42,17-8.42h14.2c5.5,0,11.5,2.19,13.32,4.86s8.89,11.3,8.89,16.8V164c0,5.5-3.59,12.71-8,16,0,0-5.67,4.28-5.67,13.17s5.67,13.16,5.67,13.16c4.4,3.31,8,10.52,8,16v3.55c0,5.5-2.56,11.71-5.69,13.8s-11.85,10.48-17.35,10.48H677.54c-5.5,0-11.44-2.66-13.21-5.91s-9.46-12.73-9.46-18.23v-3.83c0-5.5,3.56-12.76,7.91-16.12,0,0,5.38-4.18,5.38-12.92S662.78,180.27,662.78,180.27Z"/><path class="cls-1" d="M1153.24,502.55a20.32,20.32,0,1,0-40.64,0,17.71,17.71,0,0,0,7.28,14.33c4.62,3,8.4,9.93,8.4,15.43v2.39c0,5.5-3.78,12.44-8.4,15.43a17.74,17.74,0,0,0,0,28.66c4.62,3,8.4,9.93,8.4,15.43v2.22c0,5.5-2.8,11.37-6.22,13s-13.25,9.37-18.75,9.37h-13c-5.5,0-12.82-3.5-16.27-7.79,0,0-4-5-12.6-5a20.32,20.32,0,0,0,0,40.64c8.89,0,13.18-5.69,13.18-5.69,3.3-4.4,10.51-8,16-8H1103c5.5,0,12.7,3.59,16,8,0,0,4.28,5.69,13.17,5.69a20.32,20.32,0,0,0,20.32-20.32c0-8.15-4.21-11.82-4.21-11.82-4.14-3.62-7.53-11.08-7.53-16.58v-4.76c0-5.5,3.47-12.87,7.71-16.37,0,0,4.77-3.94,4.77-12.38s-4.77-12.38-4.77-12.38c-4.24-3.5-7.71-10.87-7.71-16.37v-4.42c0-5.5,3.47-12.86,7.71-16.36C1148.47,514.93,1153.24,511,1153.24,502.55Z"/><path class="cls-1" d="M1153.24,378.72a20.31,20.31,0,0,0-20.32-20.31c-8.46,0-12.41,4.8-12.41,4.8-3.49,4.24-10.85,7.72-16.35,7.72h-13.24c-5.5,0-12.86-3.48-16.35-7.72,0,0-4-4.8-12.41-4.8a20.31,20.31,0,0,0-20.32,20.31,17.38,17.38,0,0,0,6.64,13.9c4.54,3.12,8.25,10.16,8.25,15.66v2.8c0,5.5-2.53,11.41-5.61,13.15s-12.4,9.1-17.9,9.1h-15.78c-5.5,0-12.8-3.53-16.21-7.84,0,0-4.09-5.17-12.73-5.17a20.32,20.32,0,1,0,0,40.63c8.82,0,13-5.53,13-5.53,3.34-4.37,10.57-7.95,16.07-7.95h15.44c5.5,0,11.64,2.47,13.65,5.48s10,11.75,10,17.25V473c0,5.5-3.71,12.55-8.25,15.66a17.38,17.38,0,0,0-6.64,13.9,20.32,20.32,0,0,0,40.64,0c0-8.74-5.37-12.91-5.37-12.91-4.35-3.37-7.9-10.63-7.9-16.13v-3.84c0-5.5,3.55-12.76,7.9-16.13,0,0,5.37-4.17,5.37-12.9s-5.37-12.91-5.37-12.91c-4.35-3.37-7.9-10.63-7.9-16.13v-3.84c0-5.5,2.32-11.53,5.15-13.41s11.59-9.28,17.09-9.28h12.18c5.5,0,11.55,2.47,13.44,5.49s9.59,12,9.59,17.49v3.26c0,5.5-3.64,12.66-8.07,15.91a17,17,0,0,0-6,13.42,20.32,20.32,0,0,0,40.64,0,17.06,17.06,0,0,0-6-13.45c-4.44-3.24-8.07-10.39-8.07-15.89v-3.24c0-5.5,3.63-12.65,8.07-15.89A17.06,17.06,0,0,0,1153.24,378.72Z"/><path class="cls-1" d="M1132.92,296.49c-8.27,0-12.05,4.43-12.05,4.43-3.57,4.18-11,7.61-16.49,7.61H1090.7c-5.5,0-12.92-3.43-16.49-7.61,0,0-3.78-4.43-12-4.43a20.32,20.32,0,0,0,0,40.64,17.23,17.23,0,0,0,13.66-6.31c3.18-4.48,10.29-8.15,15.79-8.15h11.86c5.5,0,12.61,3.67,15.79,8.15a17.23,17.23,0,0,0,13.66,6.31,20.32,20.32,0,0,0,0-40.64Z"/><path class="cls-1" d="M1003,613.7c-4.3-3.43-7.82-10.74-7.82-16.24v-3.82c0-5.5,2.32-11.46,5.15-13.25s11.75-8.95,17.25-8.95h15.54c5.5,0,12.75,3.56,16.11,7.91,0,0,4.18,5.43,13,5.43a20.32,20.32,0,0,0,0-40.64c-8.7,0-12.83,5.28-12.83,5.28-3.39,4.33-10.66,7.87-16.16,7.87h-15.68c-5.5,0-11.49-2.25-13.32-5s-9-11.5-9-17v-3.56c0-5.5,3.59-12.7,8-16,0,0,5.68-4.28,5.68-13.16a20.32,20.32,0,0,0-40.64,0,17.25,17.25,0,0,0,6.34,13.68c4.49,3.18,8.16,10.28,8.16,15.78v3c0,5.5-3.67,12.6-8.16,15.78a17.93,17.93,0,0,0,0,27.36c4.49,3.18,8.16,10.28,8.16,15.78v2.8c0,5.5-2.57,11.39-5.71,13.09s-12.58,9.05-18.08,9.05H944.71c-5.5,0-11.46-2.15-13.25-4.79s-8.69-11.27-8.69-16.77v-3.49c0-5.5,3.64-12.65,8.09-15.89a17.09,17.09,0,0,0,6-13.46,20.31,20.31,0,0,0-20.31-20.32c-8.05,0-11.63,4-11.63,4-3.66,4.11-11.15,7.47-16.65,7.47h-6.65c-5.5,0-13-3.36-16.65-7.47,0,0-3.58-4-11.63-4a20.32,20.32,0,0,0-20.32,20.32,17,17,0,0,0,6,13.39c4.44,3.25,8.06,10.42,8.06,15.92v3.08c0,5.5-2.36,11.3-5.25,12.89S829.62,618,824.12,618h-7.91c-5.5,0-11.45-2-13.21-4.43s-8.35-10.8-8.35-16.3v-3.5c0-5.5,3.63-12.65,8.08-15.89a17.09,17.09,0,0,0,6-13.45,20.32,20.32,0,0,0-20.32-20.32c-8,0-11.63,4-11.63,4-3.65,4.11-11.14,7.47-16.64,7.47H748c-5.5,0-11.46-1.93-13.25-4.29s-8.37-10.56-8.37-16.06v-3.56c0-5.5,3.6-12.7,8-16,0,0,5.67-4.28,5.67-13.16a20.32,20.32,0,0,0-20.32-20.32c-8.82,0-13,5.55-13,5.55-3.34,4.37-10.56,8-16.06,8H677c-5.5,0-11.45-2.29-13.23-5.07s-8.86-11.65-8.86-17.15v-3.83c0-5.5,3.56-12.76,7.91-16.13,0,0,5.38-4.17,5.38-12.91a20.32,20.32,0,0,0-20.32-20.32c-8,0-11.51,3.91-11.51,3.91-3.68,4.09-11.2,7.43-16.7,7.43H603c-5.5,0-11.49-1.92-13.31-4.28s-8.47-10.51-8.47-16V408c0-5.5,3.62-12.68,8-16a17,17,0,0,0,5.85-13.31,20.31,20.31,0,0,0-20.32-20.31c-8.13,0-11.78,4.16-11.78,4.16-3.63,4.14-11.09,7.52-16.59,7.52H531.21c-5.5,0-13-3.38-16.59-7.52,0,0-3.65-4.16-11.78-4.16a20.31,20.31,0,0,0-20.32,20.31c0,8.78,5.46,13,5.46,13,4.36,3.35,7.92,10.6,7.92,16.1v3.76c0,5.5-2.32,11.52-5.17,13.37s-11.63,9.23-17.13,9.23H457.26c-5.5,0-12.68-3.61-16-8a18.08,18.08,0,0,0-26.56,0c-3.28,4.42-10.47,8-16,8H387.66c-5.5,0-12.68-3.61-16-8a17,17,0,0,0-13.28-5.81,20.32,20.32,0,0,0-20.32,20.32,17.32,17.32,0,0,0,6.54,13.82c4.52,3.14,8.22,10.2,8.22,15.7V473c0,5.5-3.7,12.56-8.22,15.7a17.89,17.89,0,0,0,0,27.66c4.52,3.13,8.22,10.2,8.22,15.7v2.85c0,5.5-2.38,11.31-5.28,12.91s-12.2,8.34-17.7,8.34H316.2c-5.5,0-12.92-3.42-16.49-7.61,0,0-3.78-4.43-12-4.43a20.32,20.32,0,0,0,0,40.64,17.05,17.05,0,0,0,13.45-6c3.24-4.44,10.39-8.08,15.89-8.08h12.07c5.5,0,12.65,3.64,15.89,8.08a17.08,17.08,0,0,0,13.46,6,20.32,20.32,0,0,0,20.32-20.32c0-8.79-5.47-13-5.47-13-4.36-3.35-7.93-10.59-7.93-16.09v-3.75c0-5.5,3.57-12.74,7.93-16.09,0,0,5.47-4.21,5.47-13s-5.47-13-5.47-13c-4.36-3.35-7.93-10.59-7.93-16.09v-3.75c0-5.5,2.39-11.58,5.31-13.5s11.68-9.58,17.18-9.58h10.78c5.5,0,12.62,3.65,15.83,8.12a18,18,0,0,0,27.16,0c3.21-4.47,10.33-8.12,15.83-8.12h16c5.5,0,12.62,3.65,15.83,8.12A17.18,17.18,0,0,0,502.84,461a20.31,20.31,0,0,0,20.32-20.31,17.34,17.34,0,0,0-6.56-13.84c-4.52-3.13-8.22-10.2-8.22-15.7v-2.84c0-5.5,2.69-11.59,6-13.54s12.44-10.15,17.94-10.15h13c5.5,0,11.57,2.6,13.49,5.78s9.91,12.28,9.91,17.78v3.1c0,5.5-3.65,12.64-8.11,15.85a17.17,17.17,0,0,0-6.16,13.56A20.31,20.31,0,0,0,574.76,461a17.48,17.48,0,0,0,14-6.85c3.08-4.56,10.09-8.29,15.59-8.29h13.82c5.5,0,11.64,2.8,13.63,6.23s10.55,12.65,10.55,18.15V473c0,5.5-2.58,11.48-5.73,13.28s-12.44,9.46-17.94,9.46H603.88c-5.5,0-12.73-3.58-16.06-8,0,0-4.23-5.55-13.06-5.55a20.32,20.32,0,0,0-20.32,20.32,17,17,0,0,0,5.87,13.31c4.42,3.28,8,10.45,8,15.95v3.38c0,5.5-3.61,12.68-8,15.95a17,17,0,0,0-5.87,13.32,20.32,20.32,0,0,0,20.32,20.32c8.32,0,12.16-4.54,12.16-4.54,3.54-4.2,11-7.64,16.45-7.64h15.87c5.5,0,12.9,3.44,16.45,7.64,0,0,3.83,4.54,12.15,4.54a20.32,20.32,0,0,0,20.32-20.32c0-8.75-5.38-12.92-5.38-12.92-4.35-3.37-7.91-10.62-7.91-16.12v-3.83c0-5.5,2.17-11.38,4.82-13.06s11.47-8.33,17-8.33H691c5.5,0,11.59,2.26,13.54,5s9.45,11.29,9.45,16.79v3c0,5.5-3.67,12.6-8.16,15.78a17.23,17.23,0,0,0-6.33,13.68,20.31,20.31,0,0,0,20.31,20.32,17.45,17.45,0,0,0,14-6.74c3.09-4.55,10.12-8.27,15.62-8.27h9.49c5.5,0,11.54,2.68,13.42,6s9.91,12.55,9.91,18v3.06c0,5.5-2.37,11.3-5.27,12.89s-12.22,8.3-17.72,8.3H747.54c-5.5,0-12.93-3.42-16.51-7.59,0,0-3.76-4.39-12-4.39a20.32,20.32,0,0,0,0,40.64,17.94,17.94,0,0,0,14.61-7.7c2.91-4.66,9.79-8.48,15.29-8.48h8.88c5.5,0,12.38,3.82,15.29,8.48a17.7,17.7,0,0,0,29.21,0c2.91-4.66,9.79-8.48,15.29-8.48h5.15c5.5,0,12.38,3.82,15.29,8.48a17.94,17.94,0,0,0,14.6,7.7A20.32,20.32,0,0,0,873,626.37c0-8.79-5.48-13-5.48-13-4.36-3.35-7.93-10.59-7.93-16.09v-3.47c0-5.5,2.62-11.67,5.81-13.7s12.11-10.35,17.61-10.35h4c5.5,0,11.53,2.68,13.41,6s9.89,12.56,9.89,18.06v3.06c0,5.5-3.69,12.56-8.22,15.69a17.37,17.37,0,0,0-6.55,13.84,20.32,20.32,0,0,0,20.32,20.32c8.89,0,13.17-5.69,13.17-5.69,3.31-4.4,10.51-8,16-8h13.55c5.5,0,12.71,3.59,16,8,0,0,4.29,5.69,13.18,5.69a20.32,20.32,0,0,0,20.32-20.32C1008.08,617.76,1003,613.7,1003,613.7ZM632.2,552.42c-2,3.14-8.15,5.71-13.65,5.71H604.06c-5.5,0-11.57-2.5-13.49-5.56s-9.75-12-9.75-17.51v-3.12c0-5.5,2.36-11.38,5.24-13.08s12-8.66,17.51-8.66H619c5.5,0,11.64,2.3,13.64,5.11s9.72,11.29,9.72,16.79v2.8C642.39,540.4,634.21,549.29,632.2,552.42Z"/><path class="cls-1" d="M1153.24,193.19a20.32,20.32,0,1,0-40.64,0,17.09,17.09,0,0,0,6,13.44c4.45,3.24,8.08,10.39,8.08,15.89v3.25c0,5.5-3.63,12.65-8.08,15.89a17.07,17.07,0,0,0-6,13.44,20.32,20.32,0,1,0,40.64,0,17.08,17.08,0,0,0-6.06-13.47c-4.45-3.24-8.09-10.39-8.09-15.89v-3.2c0-5.5,3.64-12.64,8.09-15.88A17.08,17.08,0,0,0,1153.24,193.19Z"/><path class="cls-1" d="M1082.48,193.19a20.32,20.32,0,0,0-20.32-20.32c-8.77,0-13,5.43-13,5.43-3.36,4.36-10.61,7.92-16.11,7.92h-15.53c-5.5,0-12.74-3.56-16.1-7.92,0,0-4.19-5.43-13-5.43a20.32,20.32,0,0,0-20.32,20.32,17.09,17.09,0,0,0,6,13.44c4.44,3.24,8.08,10.39,8.08,15.89v3.25c0,5.5-3.64,12.65-8.08,15.89a18,18,0,0,0,0,26.88c4.44,3.24,8.08,10.4,8.08,15.9v3c0,5.5-2.25,11.31-5,12.91s-11.82,8.14-17.32,8.14H945.12c-5.5,0-12.93-3.43-16.5-7.61,0,0-3.78-4.43-12-4.43s-12.05,4.43-12.05,4.43c-3.57,4.18-11,7.61-16.49,7.61h-6.13c-5.5,0-12.92-3.43-16.49-7.61,0,0-3.78-4.43-12-4.43a20.32,20.32,0,0,0-20.32,20.32,17,17,0,0,0,6,13.39c4.44,3.25,8.06,10.42,8.06,15.92v3.3c0,5.5-3.62,12.66-8.06,15.92a17,17,0,0,0-6,13.38,20.32,20.32,0,0,0,40.64,0,17.1,17.1,0,0,0-6.06-13.47c-4.45-3.24-8.09-10.38-8.09-15.88v-3.2c0-5.5,2.56-11.6,5.68-13.55s12.1-9.95,17.6-9.95h4.31c5.5,0,12.6,3.67,15.79,8.15a17.94,17.94,0,0,0,27.32,0c3.18-4.48,10.29-8.15,15.79-8.15h13c5.5,0,12.6,3.67,15.79,8.15a17.23,17.23,0,0,0,13.66,6.31,20.32,20.32,0,0,0,20.32-20.32c0-8.88-5.68-13.16-5.68-13.16-4.39-3.31-8-10.52-8-16v-3.35c0-5.5,3.59-12.71,8-16,0,0,5.68-4.28,5.68-13.16s-5.68-13.16-5.68-13.16c-4.39-3.31-8-10.52-8-16v-3.55c0-5.5,2.29-11.44,5.1-13.2s11.73-8.8,17.23-8.8h15.68c5.5,0,11.7,2.44,13.77,5.42s10.21,11.57,10.21,17.07v2.57c0,5.5-3.75,12.49-8.33,15.54a17.55,17.55,0,0,0-7,14.13,20.32,20.32,0,1,0,40.64,0c0-8.43-4.74-12.35-4.74-12.35-4.24-3.51-7.7-10.88-7.7-16.38v-4.45c0-5.5,3.46-12.87,7.7-16.38C1077.74,205.54,1082.48,201.62,1082.48,193.19Z"/><path class="cls-1" d="M595.08,193.19a20.32,20.32,0,0,0-40.64,0,17.16,17.16,0,0,0,6.16,13.55c4.46,3.22,8.11,10.35,8.11,15.85v3.11c0,5.5-3.65,12.63-8.11,15.85a17.16,17.16,0,0,0-6.16,13.55,20.32,20.32,0,0,0,40.64,0,17,17,0,0,0-5.85-13.31c-4.42-3.27-8-10.45-8-15.95v-3.39c0-5.5,3.62-12.68,8-16A16.94,16.94,0,0,0,595.08,193.19Z"/><path class="cls-1" d="M488.39,144.59c4.42,3.28,8,10.45,8,15.95v3.38c0,5.5-2.32,11.43-5.17,13.17s-11.85,8.79-17.35,8.79H457c-5.5,0-12.79-3.53-16.21-7.84,0,0-4.09-5.17-12.73-5.17a20.32,20.32,0,0,0,0,40.64,17.48,17.48,0,0,0,14-6.86c3.07-4.56,10.09-8.29,15.59-8.29h15.56c5.5,0,12.52,3.73,15.59,8.29a17.48,17.48,0,0,0,14,6.86,20.32,20.32,0,0,0,20.32-20.32A17.17,17.17,0,0,0,517,179.64c-4.46-3.21-8.11-10.35-8.11-15.85v-3.12c0-5.5,2.66-11.68,5.9-13.73s12.17-10.49,17.67-10.49h12.66c5.5,0,12.52,3.73,15.59,8.29a17.48,17.48,0,0,0,14,6.85,20.32,20.32,0,1,0,0-40.63c-8.64,0-12.73,5.17-12.73,5.17-3.42,4.31-10.71,7.84-16.21,7.84h-14c-5.5,0-12.79-3.53-16.21-7.84,0,0-4.09-5.17-12.73-5.17a20.32,20.32,0,0,0-20.32,20.32A17,17,0,0,0,488.39,144.59Z"/><path class="cls-1" d="M267.34,255.1a20.32,20.32,0,0,0,20.32,20.32c8.54,0,12.55-5,12.55-5,3.46-4.28,10.79-7.78,16.29-7.78h13.08c5.5,0,12.83,3.5,16.29,7.78,0,0,4,5,12.55,5a20.32,20.32,0,0,0,20.32-20.32,17.14,17.14,0,0,0-6.13-13.53c-4.46-3.22-8.1-10.36-8.1-15.86v-3.13c0-5.5,3.64-12.64,8.1-15.86a17.14,17.14,0,0,0,6.13-13.53,20.32,20.32,0,0,0-20.32-20.32A17.12,17.12,0,0,0,344.9,179c-3.23,4.45-10.36,8.1-15.86,8.1H317c-5.5,0-12.64-3.65-15.86-8.1a17.14,17.14,0,0,0-13.52-6.12,20.32,20.32,0,0,0-20.32,20.32,17.06,17.06,0,0,0,6,13.43c4.44,3.25,8.07,10.4,8.07,15.9v3.25c0,5.5-3.63,12.65-8.07,15.9A17.06,17.06,0,0,0,267.34,255.1Zm36.15-50c1.9-3,7.95-5.48,13.45-5.48h12.2c5.5,0,11.53,2.45,13.4,5.44S352,217,352,222.46v3.36c0,5.5-2.62,11.72-5.82,13.81s-12,10.57-17.49,10.57H317.36c-5.5,0-11.54-2.76-13.41-6.14s-10.05-12.79-10.05-18.29v-3.25C293.9,217,301.6,208.06,303.49,205.05Z"/><path class="cls-1" d="M287.66,151.59c8.55,0,12.58-5,12.58-5,3.45-4.28,10.77-7.78,16.27-7.78h13.05c5.5,0,12.83,3.5,16.28,7.78,0,0,4,5,12.58,5s12.58-5,12.58-5c3.45-4.28,10.77-7.78,16.27-7.78h11.89c5.5,0,12.83,3.5,16.28,7.78,0,0,4,5,12.58,5A20.32,20.32,0,1,0,428,111c-8.9,0-13.19,5.7-13.19,5.7-3.3,4.4-10.5,8-16,8H387.61c-5.5,0-12.7-3.6-16-8,0,0-4.28-5.7-13.18-5.7s-13.19,5.7-13.19,5.7c-3.3,4.4-10.5,8-16,8H316.85c-5.5,0-12.7-3.6-16-8,0,0-4.28-5.7-13.18-5.7a20.32,20.32,0,1,0,0,40.63Z"/><path class="cls-1" d="M197.74,255.1a20.32,20.32,0,1,0,40.63,0,17.24,17.24,0,0,0-6.31-13.67c-4.49-3.18-8.16-10.28-8.16-15.78v-3c0-5.5,3.67-12.6,8.16-15.78a18,18,0,0,0,0-27.34c-4.49-3.18-8.16-10.29-8.16-15.79v-3c0-5.5,3.67-12.6,8.16-15.78a17.26,17.26,0,0,0,6.31-13.67,20.32,20.32,0,1,0-40.63,0c0,8.89,5.69,13.17,5.69,13.17,4.39,3.31,8,10.51,8,16V164c0,5.5-3.6,12.71-8,16,0,0-5.69,4.29-5.69,13.18s5.69,13.17,5.69,13.17c4.39,3.31,8,10.51,8,16v3.54c0,5.5-3.6,12.71-8,16C203.43,241.93,197.74,246.21,197.74,255.1Z"/><g id="jLd72J.tif"><path class="cls-1" d="M333.72,759.3h-1.26c-6.94,0-13.88,0-20.82,0-1.08,0-1.33-.34-1.33-1.36,0-9.4,0-18.8,0-28.2,0-1.72,0-1.72-1.66-1.72H294.82v-7.73H301c1.52,0,1.52,0,1.52-1.57s0-3.4,0-5.1c0-.88.27-1.23,1.17-1.21,1.81,0,3.62,0,5.42,0,.93,0,1.3-.22,1.25-1.21-.07-1.73,0-3.47,0-5.2,0-1.06.25-1.5,1.39-1.44,1.81.09,3.62,0,5.42,0,.8,0,1.09-.26,1.08-1.06,0-2.19,0-4.39,0-6.66h7.67c0,.33.06.67.06,1,0,1.81.05,3.62,0,5.43,0,1,.19,1.35,1.25,1.29,1.8-.09,3.62,0,5.42,0,.92,0,1.18.32,1.15,1.2-.05,1.88,0,3.76,0,5.64,0,.75.27,1.07,1,1a6.42,6.42,0,0,1,.76,0l5.9.23q.11,3,.19,5.92a4.7,4.7,0,0,1,0,.65c-.09.79.24,1.09,1.05,1.08,1.91,0,3.83,0,5.75,0,.73,0,1,.21,1,1,0,1.91,0,3.83,0,5.74,0,.84-.32,1-1.09,1-4.45,0-8.9,0-13.35,0-1,0-1.27.33-1.27,1.3,0,9.51,0,19,0,28.53Z"/></g><g id="jLd72J.tif-2" data-name="jLd72J.tif"><path class="cls-1" d="M768,69.38h-1.25c-6.95,0-13.89,0-20.83,0-1.08,0-1.33-.34-1.32-1.35,0-9.41,0-18.81,0-28.21,0-1.71,0-1.71-1.67-1.71H729.14V30.39h6.18c1.52,0,1.52,0,1.52-1.57s0-3.4,0-5.09c0-.89.27-1.24,1.17-1.22,1.81,0,3.62,0,5.43,0,.93,0,1.29-.22,1.25-1.2-.08-1.74,0-3.48,0-5.21,0-1,.25-1.5,1.39-1.44,1.81.09,3.62,0,5.43,0,.8,0,1.09-.26,1.07-1.06,0-2.2,0-4.4,0-6.67h7.67c0,.33.06.68.06,1,0,1.81,0,3.62,0,5.42,0,1,.19,1.35,1.24,1.3,1.81-.09,3.62,0,5.42,0,.93,0,1.18.31,1.16,1.19-.06,1.88,0,3.76,0,5.64,0,.76.27,1.08,1,1a4.82,4.82,0,0,1,.76,0l5.91.22.18,5.92a4.7,4.7,0,0,1,0,.65c-.09.8.24,1.1,1.05,1.08,1.91,0,3.83,0,5.75,0,.73,0,1,.21,1,1,0,1.92-.05,3.83,0,5.75,0,.83-.32,1-1.09,1-4.45,0-8.9,0-13.34,0-1,0-1.28.34-1.28,1.31,0,9.51,0,19,0,28.53Z"/></g></svg>