<svg id="Layer_1" data-name="Layer 1" xmlns="http://www.w3.org/2000/svg" viewBox="0 0 1366 768"><defs><style>.cls-1{fill:#ba97e6;}</style></defs><path class="cls-1" d="M681,175.39A24.42,24.42,0,0,0,656.55,151a22.18,22.18,0,0,0-15.92,7c-3.55,4.2-11,7.64-16.45,7.64H601.09c-5.5,0-12.91-3.44-16.46-7.64a22.15,22.15,0,0,0-15.92-7,24.42,24.42,0,0,0-24.42,24.42c0,10.79,8.68,17.21,8.68,17.21,4.41,3.28,8,10.46,8,16v8.07c0,5.5-3.62,12.68-8,16,0,0-8.68,6.43-8.68,17.22a24.42,24.42,0,0,0,24.42,24.42c10.61,0,16.94-8.27,16.94-8.27,3.34-4.37,10.57-7.95,16.07-7.95h21.83c5.5,0,12,3,14.39,6.6S650,277.82,650,283.32v7.37c0,5.5-3.35,12-7.43,14.47S628.43,318,622.93,318h-20.6c-5.5,0-12.51-3.73-15.59-8.29,0,0-6.69-9.91-18-9.91a24.42,24.42,0,0,0-24.42,24.42c0,10.95,9,17.47,9,17.47,4.46,3.21,8.11,10.34,8.11,15.84v7.78c0,5.5-3.1,11.92-6.89,14.27s-13.73,12-19.23,12H515.66c-5.5,0-12-3.19-14.36-7.1s-12.37-13.86-12.37-19.36v-7.43c0-5.5,3.7-12.57,8.22-15.7,0,0,9.54-6.62,9.54-17.79a24.42,24.42,0,0,0-24.42-24.42c-11,0-17.5,9.08-17.5,9.08-3.21,4.47-10.34,8.12-15.84,8.12H425.67c-5.5,0-12.62-3.65-15.83-8.12,0,0-6.53-9.08-17.5-9.08s-17.5,9.08-17.5,9.08C371.63,313.35,364.5,317,359,317H342c-5.5,0-11.77-3-13.93-6.58S317,296.75,317,291.25v-8.48c0-5.5,3.57-12.75,7.92-16.1,0,0,8.18-6.3,8.18-16.87s-8.18-16.86-8.18-16.86c-4.35-3.36-7.92-10.6-7.92-16.1v-8.49c0-5.5,3.57-12.74,7.92-16.1,0,0,8.18-6.3,8.18-16.86A24.42,24.42,0,0,0,308.68,151c-10.88,0-17.36,8.89-17.36,8.89-3.24,4.44-10.4,8.08-15.9,8.08H256.89c-5.5,0-12.65-3.64-15.89-8.08,0,0-6.48-8.89-17.37-8.89a24.42,24.42,0,1,0,0,48.84,22.08,22.08,0,0,0,15.81-6.87c3.57-4.18,11-7.6,16.49-7.6h20.45c5.5,0,11.94,2.6,14.32,5.77S302,203.37,302,208.87v7.44c0,5.5-3.7,12.57-8.21,15.71,0,0-9.53,6.61-9.53,17.78s9.53,17.78,9.53,17.78c4.51,3.14,8.21,10.21,8.21,15.71v7.44c0,5.5-3.7,12.57-8.21,15.7,0,0-9.53,6.62-9.53,17.79a24.42,24.42,0,0,0,24.42,24.41c10.77,0,17.18-8.61,17.18-8.61,3.28-4.41,10.47-8,16-8h17.36c5.5,0,12.69,3.61,16,8,0,0,6.42,8.61,17.18,8.61S409.51,340,409.51,340c3.29-4.41,10.47-8,16-8h23.64c5.5,0,11.77,2.84,13.93,6.32s10.88,13.35,10.88,18.85v8.5c0,5.5-3.56,12.75-7.92,16.11,0,0-8.16,6.29-8.16,16.85a24.42,24.42,0,0,0,24.42,24.42,21.84,21.84,0,0,0,15.51-6.53c3.63-4.14,11.1-7.52,16.6-7.52H536.6c5.5,0,13,3.38,16.6,7.52a21.84,21.84,0,0,0,15.51,6.53,24.42,24.42,0,0,0,24.42-24.42c0-10.78-8.65-17.21-8.65-17.21-4.42-3.27-8-10.45-8-15.95v-8.09c0-5.5,2.55-11.48,5.66-13.29s13-9.09,18.52-9.09h24c5.5,0,13,3.34,16.7,7.43a21.64,21.64,0,0,0,15.21,6.2A24.41,24.41,0,0,0,681,324.22c0-10.52-8.07-16.79-8.07-16.79-4.35-3.37-7.9-10.63-7.9-16.13v-8.58c0-5.5,2.73-11.78,6.06-14s13-10.76,18.5-10.76H710c5.5,0,12.73,3.58,16.07,7.95,0,0,6.33,8.27,16.93,8.27a24.42,24.42,0,0,0,24.42-24.42c0-10.68-8.43-17.05-8.43-17.05-4.39-3.31-8-10.52-8-16v-8.27c0-5.5,2.52-11.5,5.59-13.33S769.49,186,775,186h18.54c5.5,0,13,3.36,16.66,7.46a21.72,21.72,0,0,0,15.34,6.35A24.42,24.42,0,0,0,850,175.39c0-10.88-8.87-17.36-8.87-17.36-4.45-3.24-8.08-10.39-8.08-15.89v-8.22c0-5.5,2.52-11.56,5.61-13.47s12.8-9.45,18.3-9.45h13.52c5.5,0,11.94,2.58,14.31,5.74S896,129,896,134.46v7.71c0,5.5-3.63,12.67-8.06,15.92,0,0-8.78,6.46-8.78,17.3a24.42,24.42,0,0,0,24.42,24.42,21.72,21.72,0,0,0,15.34-6.35c3.66-4.1,11.16-7.46,16.66-7.46h12c5.5,0,13,3.36,16.66,7.46a21.72,21.72,0,0,0,15.34,6.35A24.42,24.42,0,0,0,1004,175.39c0-10.89-8.89-17.37-8.89-17.37-4.44-3.24-8.08-10.39-8.08-15.89v-8.2c0-5.5,2.65-11.68,5.89-13.74s13-10.19,18.46-10.19h21.07c5.5,0,12,2.85,14.5,6.33S1059,129.12,1059,134.62V142c0,5.5-3.67,12.6-8.16,15.78,0,0-9.27,6.56-9.27,17.62s9.27,17.61,9.27,17.61c4.49,3.18,8.16,10.28,8.16,15.78v7.62c0,5.5-3.67,12.6-8.16,15.78,0,0-9.27,6.57-9.27,17.62a24.42,24.42,0,0,0,48.84,0c0-10.68-8.43-17.05-8.43-17.05-4.39-3.31-8-10.52-8-16v-8.27c0-5.5,2.77-11.73,6.15-13.85s13.2-10.61,18.7-10.61h22.83c5.5,0,12.77,3.54,16.17,7.87,0,0,6.23,7.94,16.68,7.94a24.42,24.42,0,1,0,0-48.84c-10.54,0-16.82,8.12-16.82,8.12-3.37,4.35-10.62,7.91-16.12,7.91h-22.65c-5.5,0-11.81-2.76-14-6.14s-10.93-13-10.93-18.54v-8.6c0-5.5,3.52-12.81,7.82-16.24,0,0,7.71-6.16,7.71-16.51a24.43,24.43,0,0,0-24.42-24.42C1054.41,76.55,1048,85,1048,85c-3.31,4.39-10.51,8-16,8h-20.29c-5.5,0-12.7-3.6-16-8,0,0-6.37-8.46-17.07-8.46A24.43,24.43,0,0,0,954.24,101c0,11.18,9.54,17.8,9.54,17.8,4.52,3.13,8.22,10.2,8.22,15.7v7.69c0,5.5-3.12,12-6.93,14.44S951.48,169,946,169h-8.83c-5.5,0-11.87-3.23-14.15-7.19s-12-14.19-12-19.69v-8.18c0-5.5,3.57-12.74,7.93-16.1,0,0,8.18-6.3,8.18-16.87a24.42,24.42,0,0,0-24.42-24.42c-11.78,0-18.62,11-18.62,11-2.91,4.66-9.79,8.48-15.29,8.48H858.55c-5.5,0-12.38-3.82-15.29-8.48,0,0-6.84-11-18.62-11s-18.62,11-18.62,11c-2.91,4.66-9.79,8.48-15.29,8.48H776c-5.5,0-12.38-3.82-15.29-8.48,0,0-6.84-11-18.62-11a24.42,24.42,0,1,0,0,48.84,22,22,0,0,0,15.75-6.8c3.58-4.18,11-7.59,16.51-7.59h18c5.5,0,11.94,2.59,14.32,5.75S818,129,818,134.47v7.69c0,5.5-3.12,12-6.94,14.43S797.46,169,792,169H776.57c-5.5,0-12.54-3.72-15.64-8.26,0,0-6.66-9.77-17.94-9.77a24.42,24.42,0,0,0-24.42,24.42c0,11.05,9.27,17.61,9.27,17.61,4.49,3.18,8.16,10.28,8.16,15.78v7.62c0,5.5-2.89,11.67-6.43,13.7s-13.7,10.5-19.2,10.5h-21.2c-5.5,0-11.74-2.55-13.87-5.67S665,222.38,665,216.88V208.3c0-5.5,3.55-12.76,7.9-16.13C672.9,192.17,681,185.9,681,175.39Zm-42.66,59.06c-2.41,3.38-8.88,6.15-14.38,6.15h-22.6c-5.5,0-11.88-2.69-14.18-6S576,222,576,216.49V208.7c0-5.5,3-11.85,6.73-14.11S596.42,183,601.92,183h21.43c5.5,0,12,3.09,14.39,6.86s12.26,13.55,12.26,19v7.37C650,221.78,640.72,231.07,638.31,234.45Z"/><path class="cls-1" d="M466.74,118.91c4.54,3.1,8.26,10.14,8.26,15.64v7.52c0,5.5-3.18,12-7.06,14.44S454.2,169,448.7,169H425.91c-5.5,0-12.54-3.72-15.63-8.26,0,0-6.67-9.77-17.94-9.77a24.42,24.42,0,0,0-24.42,24.42c0,10.56,8.16,16.85,8.16,16.85,4.36,3.36,7.92,10.6,7.92,16.1v8.5c0,5.5-3.56,12.75-7.92,16.11,0,0-8.16,6.29-8.16,16.85a24.42,24.42,0,0,0,48.84,0c0-11.18-9.54-17.79-9.54-17.79-4.52-3.14-8.22-10.2-8.22-15.7v-7.43c0-5.5,3-11.73,6.74-13.84s13.95-11,19.45-11h24.23c5.5,0,11.89,2.81,14.19,6.23s11.39,13,11.39,18.48v7.77c0,5.5-3.65,12.63-8.11,15.85,0,0-9,6.52-9,17.47a24.42,24.42,0,0,0,48.84,0c0-10.78-8.66-17.2-8.66-17.2-4.42-3.28-8-10.46-8-16v-8.09c0-5.5,3.61-12.68,8-16,0,0,8.66-6.42,8.66-17.2S498,158.18,498,158.18c-4.42-3.27-8-10.46-8-16v-8.4c0-5.5,2.94-12,6.54-14.53s13-12.29,18.51-12.29h19.11c5.5,0,12.49,3.74,15.54,8.32,0,0,6.72,10.07,18.12,10.07S586,115.32,586,115.32c3-4.58,10-8.32,15.54-8.32H622c5.5,0,12.5,3.74,15.55,8.32,0,0,6.72,10.07,18.12,10.07a24.42,24.42,0,1,0,0-48.84c-10.31,0-16.45,7.65-16.45,7.65C635.77,88.49,628.45,92,623,92H600.54c-5.5,0-12.82-3.51-16.26-7.8,0,0-6.14-7.65-16.46-7.65s-16.45,7.65-16.45,7.65c-3.44,4.29-10.76,7.8-16.26,7.8h-21c-5.5,0-12.82-3.51-16.26-7.8,0,0-6.13-7.65-16.45-7.65A24.42,24.42,0,0,0,457,101C457,112.25,466.74,118.91,466.74,118.91Z"/><path class="cls-1" d="M307.8,125.39a22,22,0,0,0,15.75-6.8c3.58-4.18,11-7.59,16.51-7.59h19.13c5.5,0,12.93,3.41,16.51,7.59a22,22,0,0,0,15.75,6.8,24.42,24.42,0,1,0,0-48.84c-10.92,0-17.41,9-17.41,9-3.23,4.45-10.37,8.09-15.87,8.09H341.08c-5.5,0-12.64-3.64-15.87-8.09,0,0-6.5-9-17.41-9a24.42,24.42,0,0,0,0,48.84Z"/><path class="cls-1" d="M139.09,125.39a22.52,22.52,0,0,0,16.42-7.6c3.45-4.28,10.77-7.79,16.27-7.79h18.28c5.5,0,12.82,3.51,16.27,7.79a22.52,22.52,0,0,0,16.42,7.6,24.42,24.42,0,0,0,0-48.84c-11.43,0-18.15,10.12-18.15,10.12-3,4.58-10,8.33-15.54,8.33H172.77c-5.5,0-12.49-3.75-15.53-8.33,0,0-6.72-10.12-18.15-10.12a24.42,24.42,0,0,0,0,48.84Z"/><path class="cls-1" d="M158.59,264.67c2.35-3.48,8.77-6.33,14.27-6.33h17.89c5.5,0,12.77,3.54,16.15,7.88,0,0,6.25,8,16.73,8a24.42,24.42,0,0,0,0-48.84c-10.36,0-16.52,7.74-16.52,7.74-3.43,4.3-10.73,7.82-16.23,7.82H172.73c-5.5,0-11.92-2.78-14.26-6.18S147,221.91,147,216.41v-7.63c0-5.5,3.67-12.61,8.16-15.79,0,0,9.24-6.56,9.24-17.6a24.42,24.42,0,0,0-48.84,0c0,10.69,8.45,17.06,8.45,17.06,4.4,3.31,8,10.52,8,16v8.25c0,5.5-3.59,12.71-8,16,0,0-8.45,6.37-8.45,17.06S124,266.86,124,266.86c4.4,3.31,8,10.52,8,16v8.26c0,5.5-3.59,12.7-8,16,0,0-8.45,6.37-8.45,17.07a24.42,24.42,0,0,0,48.84,0c0-11.05-9.24-17.61-9.24-17.61-4.49-3.18-8.16-10.28-8.16-15.78v-7.64C147,277.69,156.25,268.15,158.59,264.67Z"/><path class="cls-1" d="M767.41,547.22A24.42,24.42,0,0,0,743,522.8a22.48,22.48,0,0,0-16.36,7.53c-3.46,4.27-10.79,7.77-16.29,7.77H689.21c-5.5,0-12.84-3.5-16.3-7.77a22.48,22.48,0,0,0-16.36-7.53,24.42,24.42,0,0,0-24.42,24.42c0,10.9,8.92,17.39,8.92,17.39,4.45,3.23,8.09,10.38,8.09,15.88v7.87c0,5.5-3.64,12.64-8.09,15.88,0,0-8.92,6.49-8.92,17.39S641.05,639,641.05,639c4.45,3.23,8.09,10.38,8.09,15.88v7.87c0,5.5-3.64,12.65-8.09,15.88,0,0-8.92,6.49-8.92,17.39a24.42,24.42,0,0,0,24.42,24.42c11.43,0,18.16-10.13,18.16-10.13,3-4.58,10-8.33,15.53-8.33h19.07c5.5,0,12.49,3.75,15.53,8.33,0,0,6.72,10.13,18.15,10.13A24.42,24.42,0,0,0,767.41,696c0-10.68-8.43-17-8.43-17-4.39-3.32-8-10.53-8-16V654.7c0-5.5,3.59-12.71,8-16,0,0,8.43-6.37,8.43-17s-8.43-17-8.43-17c-4.39-3.31-8-10.52-8-16v-8.27c0-5.5,3.59-12.72,8-16C759,564.26,767.41,557.9,767.41,547.22ZM727,638.68c4.39,3.31,8,10.52,8,16V663c0,5.5-2.72,11.68-6,13.74S715.81,687,710.31,687H689.23c-5.5,0-11.74-2.58-13.87-5.74S665,668.63,665,663.13v-8.58c0-5.5,3.55-12.76,7.9-16.14,0,0,8.07-6.26,8.07-16.78s-8.07-16.79-8.07-16.79c-4.35-3.37-7.9-10.63-7.9-16.13v-8.58c0-5.5,3-12.06,6.65-14.57s13.1-12.46,18.6-12.46h19c5.5,0,11.8,3.26,14,7.25S735,574.79,735,580.29v8.26c0,5.5-3.59,12.71-8,16,0,0-8.45,6.36-8.45,17S727,638.68,727,638.68Z"/><path class="cls-1" d="M1256.71,233.63c-4.24-3.5-7.71-10.86-7.71-16.36v-9.35c0-5.5,3.47-12.86,7.71-16.37a21.57,21.57,0,0,0,0-32.33c-4.24-3.5-7.71-10.87-7.71-16.37v-9.74c0-5.5,3.39-13,7.53-16.58a21.87,21.87,0,0,0,6.58-15.56,24.42,24.42,0,0,0-24.42-24.42c-10.69,0-17.06,8.46-17.06,8.46-3.31,4.39-10.52,8-16,8h-18.89c-5.5,0-12.7-3.6-16-8,0,0-6.37-8.46-17.07-8.46a24.42,24.42,0,0,0,0,48.84,22.52,22.52,0,0,0,16.42-7.6c3.45-4.29,10.77-7.79,16.27-7.79H1206c5.5,0,12.2,3,14.89,6.67S1234,129.44,1234,134.94v6.68c0,5.5-3.78,12.44-8.39,15.43,0,0-10.45,6.77-10.45,18.34s10.45,18.33,10.45,18.33c4.61,3,8.39,9.94,8.39,15.44V216c0,5.5-3.78,12.45-8.39,15.44,0,0-10.45,6.77-10.45,18.33a24.42,24.42,0,0,0,48.84,0A22.34,22.34,0,0,0,1256.71,233.63Z"/><path class="cls-1" d="M1264,324.22a24.42,24.42,0,0,0-48.84,0c0,10.85,8.82,17.32,8.82,17.32,4.44,3.25,8.07,10.41,8.07,15.91v7.95c0,5.5-3,11.85-6.62,14.11s-13.55,11.49-19,11.49h-18.65c-5.5,0-11.75-2.86-13.89-6.35S1163,371.22,1163,365.72v-8.6c0-5.5,3.55-12.76,7.89-16.13,0,0,8.06-6.27,8.06-16.77s-8.06-16.78-8.06-16.78c-4.34-3.37-7.89-10.63-7.89-16.13v-8.6c0-5.5,3.55-12.76,7.89-16.14,0,0,8.06-6.26,8.06-16.77a24.42,24.42,0,0,0-48.84,0c0,11.23,9.65,17.86,9.65,17.86,4.53,3.12,8.24,10.17,8.24,15.67v7.36c0,5.5-3.11,11.77-6.91,13.94S1127,316,1121.53,316H1099c-5.5,0-12.73-3.57-16.07-7.94,0,0-6.32-8.26-16.93-8.26a24.42,24.42,0,1,0,0,48.83c10.39,0,16.58-7.79,16.58-7.79,3.41-4.31,10.71-7.84,16.21-7.84h23c5.5,0,12,2.85,14.39,6.34s11.86,12.9,11.86,18.4v7.36c0,5.5-3.71,12.55-8.24,15.67,0,0-9.65,6.63-9.65,17.86a24.42,24.42,0,0,0,24.42,24.42,22.36,22.36,0,0,0,16.2-7.33c3.49-4.25,10.85-7.72,16.35-7.72h20c5.5,0,12.86,3.47,16.35,7.72a22.36,22.36,0,0,0,16.2,7.33A24.42,24.42,0,0,0,1264,398.63c0-10.88-8.87-17.36-8.87-17.36-4.44-3.24-8.08-10.39-8.08-15.89v-7.91c0-5.5,3.64-12.66,8.08-15.9C1255.13,341.57,1264,335.1,1264,324.22Z"/><path class="cls-1" d="M1239.58,448.62c-11,0-17.59,9.23-17.59,9.23-3.19,4.48-10.29,8.15-15.79,8.15h-18.29c-5.5,0-12.6-3.67-15.79-8.15,0,0-6.55-9.23-17.59-9.23a24.42,24.42,0,0,0,0,48.84,22.05,22.05,0,0,0,15.8-6.86c3.57-4.18,11-7.6,16.5-7.6h20.45c5.5,0,12.93,3.42,16.5,7.6a22.05,22.05,0,0,0,15.8,6.86,24.42,24.42,0,1,0,0-48.84Z"/><path class="cls-1" d="M1264,547.22a24.42,24.42,0,0,0-48.84,0c0,10.87,8.86,17.34,8.86,17.34,4.44,3.25,8.07,10.4,8.07,15.9v7.92c0,5.5-3.63,12.66-8.07,15.9,0,0-8.86,6.48-8.86,17.35a24.42,24.42,0,0,0,48.84,0c0-10.9-8.91-17.39-8.91-17.39-4.45-3.23-8.09-10.38-8.09-15.88v-7.88c0-5.5,3.64-12.64,8.09-15.88C1255.09,564.6,1264,558.11,1264,547.22Z"/><path class="cls-1" d="M1239.58,671.62a22,22,0,0,0-15.74,6.8c-3.59,4.17-11,7.58-16.52,7.58h-20.53c-5.5,0-12.93-3.41-16.52-7.59a21.63,21.63,0,0,0-31.48,0c-3.58,4.17-11,7.58-16.52,7.58h-24c-5.5,0-12.93-3.41-16.51-7.58a22,22,0,0,0-15.75-6.8,24.42,24.42,0,0,0,0,48.84c11.07,0,17.64-9.29,17.64-9.29,3.18-4.49,10.27-8.17,15.77-8.17h21.72c5.5,0,12.6,3.68,15.77,8.17,0,0,6.57,9.29,17.64,9.29s17.64-9.29,17.64-9.29c3.17-4.49,10.27-8.17,15.77-8.17h18.23c5.5,0,12.6,3.68,15.77,8.17,0,0,6.57,9.29,17.64,9.29a24.42,24.42,0,1,0,0-48.84Z"/><path class="cls-1" d="M1136.22,606.46c-2.5,3.6-9,6.54-14.54,6.54h-22.84c-5.5,0-11.8-2.72-14-6S1074,594.06,1074,588.56v-8.27c0-5.5,3.59-12.72,8-16,0,0,8.43-6.36,8.43-17s-8.43-17.05-8.43-17.05c-4.39-3.31-8-10.53-8-16v-8c0-5.5,3.59-12.71,8-16,0,0,8.43-6.37,8.43-17A24.42,24.42,0,0,0,1066,448.62c-11,0-17.59,9.23-17.59,9.23-3.18,4.48-10.29,8.15-15.79,8.15h-19.67c-5.5,0-12.61-3.67-15.8-8.15,0,0-6.55-9.23-17.59-9.23S962,457.85,962,457.85c-3.19,4.48-10.29,8.15-15.79,8.15H937c-5.5,0-11.87-3.1-14.16-6.9S911,445.27,911,439.77V431.9c0-5.5,3.64-12.65,8.09-15.89,0,0,8.91-6.48,8.91-17.38a24.42,24.42,0,1,0-48.84,0c0,10.84,8.78,17.29,8.78,17.29,4.43,3.26,8.06,10.42,8.06,15.92v8c0,5.5-3.63,12.66-8.06,15.92,0,0-8.78,6.45-8.78,17.29a24.42,24.42,0,0,0,24.42,24.42,22.05,22.05,0,0,0,15.8-6.86c3.57-4.18,11-7.6,16.5-7.6h11.37c5.5,0,12.93,3.42,16.5,7.6a21.63,21.63,0,0,0,31.6,0c3.57-4.18,11-7.6,16.5-7.6h21.85c5.5,0,11.84,2.51,14.09,5.58s10.72,12.21,10.72,17.71V514c0,5.5-3.64,12.65-8.08,15.9,0,0-8.86,6.47-8.86,17.35s8.86,17.34,8.86,17.34c4.44,3.25,8.08,10.4,8.08,15.9v7.92c0,5.5-3.64,12.66-8.08,15.9,0,0-8.86,6.48-8.86,17.35A24.42,24.42,0,0,0,1066,646.05c10.55,0,16.84-8.14,16.84-8.14,3.36-4.35,10.61-7.91,16.11-7.91h22.64c5.5,0,12.76,3.56,16.12,7.91,0,0,6.28,8.14,16.83,8.14A24.42,24.42,0,0,0,1179,621.63a22.33,22.33,0,0,0-7.25-16.14c-4.23-3.51-7.7-10.88-7.7-16.38v-9.38c0-5.5,3.47-12.87,7.7-16.38a22.32,22.32,0,0,0,7.25-16.13,24.42,24.42,0,0,0-48.84,0c0,11.4,10.08,18.12,10.08,18.12,4.57,3,8.32,10,8.32,15.54V588C1148.51,593.46,1138.71,602.87,1136.22,606.46Z"/><path class="cls-1" d="M1004,547.22a24.42,24.42,0,0,0-24.42-24.42c-11,0-17.5,9.08-17.5,9.08-3.21,4.47-10.33,8.12-15.83,8.12h-9.3c-5.5,0-12.63-3.65-15.84-8.12,0,0-6.52-9.08-17.5-9.08s-17.5,9.08-17.5,9.08c-3.21,4.47-10.34,8.12-15.84,8.12H858.87c-5.5,0-11.75-2.94-13.89-6.54s-11-13.65-11-19.15V506c0-5.5,3.55-12.76,7.89-16.14,0,0,8.06-6.26,8.06-16.77s-8.06-16.77-8.06-16.77c-4.34-3.37-7.89-10.64-7.89-16.14v-8.59c0-5.5,3.55-12.76,7.89-16.14,0,0,8.06-6.26,8.06-16.77a24.42,24.42,0,0,0-24.42-24.42,22.52,22.52,0,0,0-16.42,7.6c-3.45,4.28-10.77,7.79-16.27,7.79H775.68c-5.5,0-11.79-2.64-14-5.86S751,371.06,751,365.56v-8.27c0-5.5,2.87-11.84,6.37-14.07S770.64,332,776.14,332h16.25c5.5,0,12.68,3.61,16,8,0,0,6.41,8.61,17.17,8.61S842.7,340,842.7,340c3.29-4.41,10.48-8,16-8h11.76c5.5,0,12.68,3.61,16,8,0,0,6.41,8.61,17.17,8.61a24.42,24.42,0,1,0,0-48.83c-11,0-17.5,9.08-17.5,9.08-3.21,4.47-10.34,8.12-15.84,8.12H858.87c-5.5,0-11.75-2.94-13.89-6.54s-11-13.65-11-19.15v-8.6c0-5.5,3-12,6.57-14.49S853.65,256,859.15,256H870c5.5,0,12.51,3.73,15.58,8.29,0,0,6.7,9.93,18,9.93s18-9.93,18-9.93c3.07-4.56,10.08-8.29,15.58-8.29h8.73c5.5,0,12,3.38,14.37,7.5S973,277.82,973,283.32v7.37c0,5.5-3.71,12.55-8.24,15.67,0,0-9.63,6.64-9.63,17.86s9.63,17.85,9.63,17.85c4.53,3.12,8.24,10.17,8.24,15.67v7.37c0,5.5-3.71,12.55-8.24,15.67,0,0-9.63,6.63-9.63,17.85a24.42,24.42,0,0,0,24.42,24.42,22.36,22.36,0,0,0,16.2-7.33c3.49-4.25,10.85-7.72,16.35-7.72h21.34c5.5,0,12.86,3.47,16.36,7.72a22.35,22.35,0,0,0,16.19,7.33,24.42,24.42,0,1,0,0-48.84c-10.82,0-17.26,8.74-17.26,8.74-3.26,4.43-10.43,8.05-15.93,8.05h-20c-5.5,0-11.75-2.86-13.9-6.36S988,371.21,988,365.71v-8.58c0-5.5,3.55-12.76,7.9-16.13,0,0,8.07-6.27,8.07-16.78s-8.07-16.79-8.07-16.79c-4.35-3.37-7.9-10.63-7.9-16.13v-8.58c0-5.5,3.55-12.76,7.9-16.13,0,0,8.07-6.27,8.07-16.79a24.42,24.42,0,0,0-24.42-24.42c-10.38,0-16.56,7.79-16.56,7.79-3.42,4.31-10.72,7.83-16.22,7.83H936.36c-5.5,0-12.8-3.52-16.22-7.83,0,0-6.18-7.79-16.56-7.79S887,233.17,887,233.17C883.6,237.48,876.3,241,870.8,241H858.31c-5.5,0-12.8-3.52-16.22-7.83,0,0-6.18-7.79-16.56-7.79a24.42,24.42,0,0,0-24.42,24.42c0,11.23,9.65,17.86,9.65,17.86,4.53,3.12,8.24,10.17,8.24,15.67v7.36c0,5.5-3.23,11.89-7.18,14.2S797.7,317,792.2,317H776.33c-5.5,0-12.63-3.65-15.83-8.12,0,0-6.53-9.08-17.51-9.08a24.42,24.42,0,0,0-24.42,24.42c0,11,9.27,17.61,9.27,17.61,4.49,3.18,8.16,10.28,8.16,15.78v7.62c0,5.5-3.67,12.6-8.16,15.78,0,0-9.27,6.56-9.27,17.62s9.27,17.62,9.27,17.62c4.49,3.18,8.16,10.28,8.16,15.78v7.62c0,5.5-3.27,12-7.28,14.52S714.83,467,709.33,467H690.22c-5.5,0-11.86-3.3-14.13-7.33S664,445.28,664,439.78v-7.89c0-5.5,3.64-12.65,8.08-15.89,0,0,8.89-6.48,8.89-17.37a24.42,24.42,0,0,0-48.84,0c0,10.85,8.81,17.31,8.81,17.31,4.43,3.25,8.06,10.41,8.06,15.91v8c0,5.5-3.16,12-7,14.53S628.39,467,622.89,467H602.38c-5.5,0-12.5-3.74-15.55-8.32,0,0-6.72-10.06-18.12-10.06s-18.11,10.06-18.11,10.06c-3.05,4.58-10.05,8.32-15.55,8.32H515.93c-5.5,0-12.49-3.74-15.55-8.32,0,0-6.71-10.06-18.11-10.06A24.42,24.42,0,0,0,457.85,473c0,11,9,17.47,9,17.47,4.46,3.22,8.11,10.35,8.11,15.85v7.54c0,5.5-3.2,12-7.11,14.48S454.15,541,448.65,541H426c-5.5,0-11.84-3.24-14.08-7.2S400,519.53,400,514v-7.8c0-5.5,3.62-12.67,8-15.94,0,0,8.72-6.44,8.72-17.25S408,455.8,408,455.8c-4.42-3.27-8-10.44-8-15.94v-8c0-5.5,3.62-12.68,8-15.95,0,0,8.72-6.43,8.72-17.24a24.42,24.42,0,1,0-48.84,0c0,10.93,9,17.43,9,17.43,4.46,3.23,8.1,10.36,8.1,15.86v7.83c0,5.5-3,11.8-6.6,14S364.78,465,359.28,465H341.74c-5.5,0-11.77-2.8-13.93-6.21S317,445.58,317,440.08v-8.49c0-5.5,3.57-12.74,7.92-16.1,0,0,8.18-6.3,8.18-16.86a24.42,24.42,0,0,0-24.42-24.42c-11.54,0-18.3,10.39-18.3,10.39-3,4.61-9.95,8.38-15.45,8.38H257.39c-5.5,0-11.52-3-13.37-6.67S234,372,234,366.52V356.33c0-5.5,3.38-13,7.52-16.6a21.86,21.86,0,0,0,6.53-15.51,24.42,24.42,0,0,0-48.84,0c0,11.9,11.25,18.76,11.25,18.76,4.7,2.87,8.54,9.71,8.54,15.21v6.46c0,5.5-3.81,12-8.46,14.53S195.38,393,189.88,393H173.73c-5.5,0-12.45-3.77-15.45-8.38,0,0-6.76-10.39-18.3-10.39a24.42,24.42,0,1,0,0,48.84,21.29,21.29,0,0,0,14.77-5.75c3.76-4,11.34-7.3,16.84-7.3H192c5.5,0,12.16,2.52,14.8,5.59S219,427.1,219,432.6v6.47c0,5.5-3.51,11.75-7.79,13.9s-15.13,12-20.63,12H173c-5.5,0-12.72-3.59-16-8,0,0-6.35-8.39-17-8.39a24.42,24.42,0,1,0,0,48.84,22.38,22.38,0,0,0,16.22-7.35c3.49-4.25,10.84-7.73,16.34-7.73h18.53c5.5,0,12.85,3.48,16.34,7.73a22.41,22.41,0,0,0,16.22,7.35A24.42,24.42,0,0,0,248.05,473a21.84,21.84,0,0,0-6.53-15.51c-4.14-3.63-7.52-11.1-7.52-16.6V430.74c0-5.5,2-11.36,4.38-13S249.74,410,255.24,410h21.83c5.5,0,11.91,2.31,14.23,5.14s10.7,11.48,10.7,17v7.44c0,5.5-3.7,12.56-8.21,15.7,0,0-9.53,6.61-9.53,17.78a24.42,24.42,0,0,0,24.42,24.42c11.07,0,17.64-9.29,17.64-9.29,3.17-4.49,10.27-8.17,15.77-8.17h16.84c5.5,0,11.88,3.13,14.18,7S385,500.84,385,506.34v7.58c0,5.5-3.64,12.64-8.1,15.86,0,0-9,6.51-9,17.44a24.41,24.41,0,0,0,24.42,24.41c10.39,0,16.57-7.79,16.57-7.79,3.42-4.31,10.71-7.84,16.21-7.84h24.36c5.5,0,12.8,3.53,16.22,7.84,0,0,6.18,7.79,16.57,7.79a24.41,24.41,0,0,0,24.42-24.41C506.69,536.43,498,530,498,530c-4.42-3.28-8-10.46-8-16v-7.84c0-5.5,2.78-11.7,6.17-13.77S509.49,482,515,482h21c5.5,0,12.81,3.51,16.25,7.8,0,0,6.14,7.66,16.46,7.66s16.47-7.66,16.47-7.66c3.44-4.29,10.75-7.8,16.25-7.8h22.4c5.5,0,12.82,3.51,16.26,7.8,0,0,6.14,7.66,16.46,7.66S673,489.8,673,489.8c3.44-4.29,10.76-7.8,16.26-7.8h21c5.5,0,12.81,3.51,16.25,7.8,0,0,6.14,7.66,16.46,7.66A24.42,24.42,0,0,0,767.41,473c0-10.68-8.43-17-8.43-17-4.39-3.32-8-10.53-8-16V431.7c0-5.5,2.8-11.76,6.22-13.91S770.44,407,775.94,407h16.64c5.5,0,11.93,2.88,14.27,6.4s11.66,13.12,11.66,18.62v7.63c0,5.5-3.67,12.61-8.16,15.79,0,0-9.24,6.56-9.24,17.6s9.24,17.61,9.24,17.61c4.49,3.18,8.16,10.28,8.16,15.78v7.4c0,5.5-3.67,12.6-8.16,15.78,0,0-9.24,6.56-9.24,17.61a24.41,24.41,0,0,0,24.42,24.41,22.15,22.15,0,0,0,15.92-7C845,560.44,852.4,557,857.9,557h13.31c5.5,0,12.9,3.44,16.45,7.64a21.62,21.62,0,0,0,31.84,0c3.55-4.2,11-7.64,16.45-7.64h11.23c5.5,0,11.83,2.53,14.08,5.63S972,574.93,972,580.43v8c0,5.5-3.09,12-6.86,14.38S951.55,615,946.05,615h-9c-5.5,0-12.56-3.7-15.69-8.22,0,0-6.62-9.57-17.81-9.57s-17.81,9.57-17.81,9.57c-3.13,4.52-10.19,8.22-15.69,8.22H859c-5.5,0-12.56-3.7-15.69-8.22,0,0-6.62-9.57-17.81-9.57a24.42,24.42,0,1,0,0,48.84A21.84,21.84,0,0,0,841,639.52c3.63-4.14,11.1-7.52,16.6-7.52h13.83c5.5,0,13,3.38,16.6,7.52a21.68,21.68,0,0,0,31,0c3.63-4.14,11.1-7.52,16.6-7.52h11.75c5.5,0,13,3.38,16.6,7.52a21.84,21.84,0,0,0,15.51,6.53A24.42,24.42,0,0,0,1004,621.63c0-10.9-8.91-17.39-8.91-17.39C990.61,601,987,593.86,987,588.36v-7.88c0-5.5,3.64-12.64,8.09-15.88C995.06,564.6,1004,558.11,1004,547.22Z"/><path class="cls-1" d="M979.55,671.62c-10.67,0-17,8.41-17,8.41-3.32,4.38-10.54,8-16,8h-9.85c-5.5,0-12.72-3.59-16-8,0,0-6.35-8.41-17-8.41s-17,8.41-17,8.41c-3.32,4.38-10.54,8-16,8H858.59c-5.5,0-12.72-3.59-16-8,0,0-6.35-8.41-17-8.41a24.42,24.42,0,1,0,0,48.84c10.32,0,16.46-7.66,16.46-7.66,3.44-4.29,10.76-7.8,16.26-7.8h12.61c5.5,0,12.82,3.51,16.26,7.8,0,0,6.14,7.66,16.46,7.66S920,712.8,920,712.8c3.44-4.29,10.76-7.8,16.26-7.8h10.53c5.5,0,12.82,3.51,16.26,7.8,0,0,6.14,7.66,16.46,7.66a24.42,24.42,0,1,0,0-48.84Z"/><path class="cls-1" d="M593.13,547.22a24.42,24.42,0,1,0-48.84,0c0,10.95,9,17.47,9,17.47,4.46,3.21,8.11,10.34,8.11,15.84v7.78c0,5.5-3.65,12.63-8.11,15.85,0,0-9,6.51-9,17.47a24.42,24.42,0,1,0,48.84,0c0-10.78-8.65-17.21-8.65-17.21-4.42-3.27-8-10.45-8-15.95v-8.09c0-5.5,3.62-12.68,8-16C584.48,564.42,593.13,558,593.13,547.22Z"/><path class="cls-1" d="M568.71,671.62c-11.34,0-18,9.92-18,9.92-3.08,4.56-10.1,8.29-15.6,8.29h-19.2c-5.5,0-11.88-3.29-14.18-7.31s-12.15-14.29-12.15-19.79v-7.79c0-5.5,3.64-12.63,8.1-15.85,0,0,9-6.51,9-17.46a24.42,24.42,0,0,0-24.42-24.42c-11.34,0-18,9.91-18,9.91-3.07,4.56-10.09,8.29-15.59,8.29H426c-5.5,0-12.52-3.73-15.59-8.29,0,0-6.69-9.91-18-9.91a24.42,24.42,0,1,0,0,48.84c10.39,0,16.57-7.8,16.57-7.8,3.42-4.31,10.71-7.84,16.21-7.84h24.36c5.5,0,11.84,2.72,14.08,6s11,12.85,11,18.35v8.07c0,5.5-3.62,12.68-8,16,0,0-8.67,6.42-8.67,17.21a24.42,24.42,0,0,0,24.42,24.42c10.39,0,16.57-7.8,16.57-7.8,3.42-4.31,10.71-7.83,16.21-7.83h20.88c5.5,0,12.79,3.52,16.21,7.83,0,0,6.18,7.8,16.57,7.8a24.42,24.42,0,0,0,0-48.84Z"/><path class="cls-1" d="M392.34,671.62a22.5,22.5,0,0,0-16.4,7.58c-3.45,4.28-10.78,7.78-16.28,7.78h-18.3c-5.5,0-12.83-3.5-16.28-7.78a21.52,21.52,0,0,0-32.79,0C288.83,683.48,281.51,687,276,687h-19.7c-5.5,0-12.83-3.5-16.28-7.78a22.5,22.5,0,0,0-16.4-7.58,24.42,24.42,0,1,0,0,48.84c10.7,0,17.08-8.47,17.08-8.47,3.3-4.39,10.51-8,16-8H275.6c5.5,0,12.7,3.6,16,8,0,0,6.37,8.47,17.07,8.47S325.76,712,325.76,712c3.3-4.39,10.51-8,16-8h17.48c5.5,0,12.71,3.6,16,8,0,0,6.38,8.47,17.08,8.47a24.42,24.42,0,0,0,0-48.84Z"/><path class="cls-1" d="M199.21,621.63a24.42,24.42,0,0,0,24.42,24.42c10.94,0,17.44-9,17.44-9,3.22-4.46,10.36-8.1,15.86-8.1h18.45c5.5,0,12.64,3.64,15.87,8.1,0,0,6.5,9,17.43,9a24.42,24.42,0,0,0,24.42-24.42c0-10.94-9-17.45-9-17.45-4.45-3.22-8.1-10.35-8.1-15.85v-7.81c0-5.5,3.65-12.64,8.1-15.86,0,0,9-6.51,9-17.44a24.42,24.42,0,0,0-24.42-24.42,22.48,22.48,0,0,0-16.36,7.53c-3.46,4.27-10.79,7.77-16.29,7.77H256.29c-5.5,0-12.83-3.5-16.29-7.77a22.49,22.49,0,0,0-16.37-7.53,24.42,24.42,0,0,0-24.42,24.42c0,10.87,8.86,17.34,8.86,17.34,4.44,3.24,8.07,10.4,8.07,15.9v7.92c0,5.5-3.63,12.66-8.07,15.91C208.07,604.29,199.21,610.76,199.21,621.63Zm44-61.14c2.26-4.06,8.6-7.39,14.1-7.39H275c5.5,0,11.83,3.3,14.06,7.34s12,14.45,12,19.95v8.06c0,5.5-2.94,11.84-6.54,14.1S281,614,275.5,614H256.82c-5.5,0-11.87-3-14.14-6.59s-11.54-13.48-11.54-19v-7.94C231.14,575,241,564.55,243.23,560.49Z"/><path class="cls-1" d="M164.4,547.22a24.42,24.42,0,0,0-48.84,0c0,10.69,8.45,17.06,8.45,17.06,4.4,3.31,8,10.51,8,16v8.26c0,5.5-3.59,12.71-8,16,0,0-8.45,6.37-8.45,17.06S124,638.69,124,638.69c4.4,3.31,8,10.52,8,16V663c0,5.5-3.59,12.71-8,16,0,0-8.45,6.37-8.45,17.06a24.42,24.42,0,0,0,48.84,0c0-11-9.24-17.6-9.24-17.6-4.49-3.18-8.16-10.29-8.16-15.79V655c0-5.5,3.67-12.61,8.16-15.79,0,0,9.24-6.56,9.24-17.6s-9.24-17.6-9.24-17.6c-4.49-3.19-8.16-10.29-8.16-15.79V580.6c0-5.5,3.67-12.6,8.16-15.78C155.16,564.82,164.4,558.26,164.4,547.22Z"/></svg>