<svg id="Layer_1" data-name="Layer 1" xmlns="http://www.w3.org/2000/svg" viewBox="0 0 540 417.98"><defs><style>.cls-1{fill:#2b5125;}.cls-2{fill:#ba97e6;}</style></defs><rect class="cls-1" width="540" height="417.98" rx="31.28"/><path class="cls-2" d="M146.33,43c-9.56,0-14.06,5.59-14.06,5.59-3.84,4.78-12,8.7-18.15,8.7H100.88c-6.14,0-14.31-3.92-18.15-8.7,0,0-4.5-5.59-14.06-5.59a22.67,22.67,0,0,0,0,45.34,19.61,19.61,0,0,0,15.79-7.83c3.39-5.11,11.19-9.3,17.33-9.3h11.42c6.14,0,13.94,4.19,17.33,9.3a19.61,19.61,0,0,0,15.79,7.83,22.67,22.67,0,0,0,0-45.34Z"/><path class="cls-2" d="M327.25,65.06a23.63,23.63,0,0,1-23.63,23.63c-10.47,0-15.54-6.88-15.54-6.88-3.79-5.16-12.13-9.37-18.53-9.37H254c-6.4,0-16.58,8.62-19.89,10.8s-6,9.2-6,15.6v4.45c0,6.4,4.13,14.84,9.19,18.76,0,0,6.26,4.85,6.26,15s-6.26,15-6.26,15c-5.06,3.92-9.19,12.36-9.19,18.76v4.45c0,6.4,4.13,14.84,9.19,18.76,0,0,6.26,4.85,6.26,15A23.63,23.63,0,0,1,220,232.71c-10.05,0-14.8-6-14.8-6-4-5-12.46-9.11-18.86-9.11h-6.2c-6.4,0-14.89,4.1-18.86,9.12,0,0-4.76,6-14.8,6s-14.8-6-14.8-6c-4-5-12.46-9.12-18.86-9.12h-8.22c-4.48,0-10,2-14.25,4.94a21.47,21.47,0,0,0-4.6,4.17,16.89,16.89,0,0,1-6.61,4.49l-.07,0a22,22,0,0,1-8.12,1.48,23.63,23.63,0,0,1-23.63-23.63,20.75,20.75,0,0,1,1.84-8.67A19.37,19.37,0,0,1,55,192.92a19.88,19.88,0,0,0,4.37-4.29c3.09-4.06,5.22-9.44,5.22-13.93v-3.25c0-4.79-5.43-11.87-9.14-16.69v0c-1.23-1.6-2.27-3-2.85-3.88a9.4,9.4,0,0,0-2.15-2.3,23.53,23.53,0,0,1,.83-24.3,20.09,20.09,0,0,0,4.2-4.06,17.57,17.57,0,0,1,6-4.62l.39-.18a21.13,21.13,0,0,1,9.08-2,21.64,21.64,0,0,1,7.7,1.37,18.32,18.32,0,0,1,7.74,5.39,20.24,20.24,0,0,0,4.57,4.34c4.16,3,9.56,5,14,5h7.5c6.4,0,14.76-4.2,18.58-9.34,0,0,5-6.76,15.44-6.76a23.63,23.63,0,1,1,0,47.26,20,20,0,0,1-15.8-7.2c-3.73-5.2-12-9.45-18.41-9.45h-7.11c-4.83,0-11.79,5-16.36,8.48-1.49,1.12-2.73,2.06-3.55,2.61a8.5,8.5,0,0,0-2.12,2.15c-2.32,3.19-4,8.58-4,13.55v4.47c0,4.67,4.71,11.76,8.06,16.68,1.23,1.83,2.28,3.35,2.84,4.35a8.7,8.7,0,0,0,2.16,2.45,22.29,22.29,0,0,0,13.2,4.29H112c6.4,0,14.56-4.34,18.13-9.65a20.72,20.72,0,0,1,32.68,0c3.57,5.31,11.73,9.65,18.13,9.65h4.58c6.4,0,17-10.05,20.94-12.42s7.19-9.56,7.19-16v-3.25c0-6.4-4.31-14.6-9.58-18.23a20.77,20.77,0,0,1,0-32.3c5.27-3.63,9.58-11.83,9.58-18.23V99.44c0-6.4-4.31-14.6-9.58-18.23a20.21,20.21,0,0,1-7.71-16.15A23.63,23.63,0,0,1,220,41.43c9.84,0,14.43,5.58,14.43,5.58,4.06,4.94,12.62,9,19,9h16.75c6.4,0,15-4,19-9,0,0,4.6-5.58,14.43-5.58A23.63,23.63,0,0,1,327.25,65.06Z"/><path class="cls-2" d="M495.24,209.08a23.64,23.64,0,0,0-47.27,0,20.6,20.6,0,0,0,8.47,16.67c5.37,3.47,9.77,11.55,9.77,17.95v2.77c0,6.4-4.4,14.48-9.77,18a20.64,20.64,0,0,0,0,33.34c5.37,3.48,9.77,11.55,9.77,17.95v2.58c0,6.4-3.26,13.22-7.24,15.17s-15.4,10.91-21.8,10.91H422c-6.4,0-14.91-4.08-18.92-9.06,0,0-4.69-5.84-14.66-5.84a23.64,23.64,0,0,0,0,47.27c10.35,0,15.33-6.62,15.33-6.62,3.84-5.11,12.22-9.3,18.62-9.3H436.8c6.4,0,14.78,4.19,18.62,9.3,0,0,5,6.62,15.33,6.62a23.63,23.63,0,0,0,23.63-23.64c0-9.48-4.89-13.75-4.89-13.75-4.82-4.2-8.77-12.88-8.77-19.28v-5.54c0-6.4,4-15,9-19,0,0,5.55-4.58,5.55-14.4s-5.55-14.4-5.55-14.4c-4.93-4.07-9-12.64-9-19v-5.14c0-6.4,4-15,9-19C489.69,223.48,495.24,218.9,495.24,209.08Z"/><path class="cls-2" d="M495.24,65.06a23.63,23.63,0,0,0-23.63-23.64c-9.84,0-14.44,5.59-14.44,5.59-4.06,4.94-12.62,9-19,9h-15.4c-6.39,0-14.95-4-19-9,0,0-4.59-5.59-14.43-5.59a23.63,23.63,0,0,0-23.63,23.64,20.23,20.23,0,0,0,7.72,16.16C378.67,84.84,383,93,383,99.44v3.25c0,6.39-2.93,13.28-6.52,15.29S362,128.57,355.64,128.57H337.28c-6.39,0-14.88-4.11-18.85-9.12,0,0-4.76-6-14.81-6a23.63,23.63,0,0,0,0,47.26c10.26,0,15.18-6.44,15.18-6.44,3.88-5.08,12.29-9.24,18.69-9.24h17.95c6.4,0,13.54,2.87,15.88,6.37S383,165.05,383,171.45v3.25c0,6.39-4.31,14.59-9.59,18.21a20.24,20.24,0,0,0-7.72,16.17,23.63,23.63,0,0,0,47.26,0c0-10.17-6.24-15-6.24-15-5.06-3.92-9.19-12.37-9.19-18.76v-4.47c0-6.4,4.13-14.84,9.19-18.76,0,0,6.24-4.85,6.24-15s-6.24-15-6.24-15c-5.06-3.93-9.19-12.37-9.19-18.77V98.83c0-6.4,2.7-13.42,6-15.6S417,72.44,423.37,72.44h14.17c6.39,0,13.43,2.87,15.63,6.38s11.15,13.94,11.15,20.34V103c0,6.4-4.22,14.73-9.39,18.5a19.85,19.85,0,0,0-7,15.61,23.64,23.64,0,0,0,47.27,0,19.85,19.85,0,0,0-7-15.64c-5.17-3.77-9.4-12.09-9.4-18.49V99.18c0-6.39,4.23-14.71,9.4-18.48A19.88,19.88,0,0,0,495.24,65.06Z"/><path class="cls-2" d="M389.3,257.46c-10.11,0-14.92,6.14-14.92,6.14-3.94,5-12.4,9.16-18.8,9.16H337.35c-6.4,0-13.38-2.63-15.5-5.84s-10.48-13.37-10.48-19.76V243c0-6.4,4.18-14.78,9.29-18.63,0,0,6.59-5,6.59-15.31a23.63,23.63,0,1,0-47.26,0A20.07,20.07,0,0,0,287.36,225c5.22,3.69,9.49,11.95,9.49,18.35v3.48c0,6.39-4.27,14.65-9.49,18.35a20.87,20.87,0,0,0,0,31.83c5.22,3.7,9.49,11.95,9.49,18.35v3.26c0,6.4-3,13.25-6.63,15.23s-14.64,10.52-21,10.52h-16.5c-6.4,0-13.33-2.51-15.41-5.57s-10.1-13.12-10.1-19.51v-4.06c0-6.4,4.23-14.71,9.4-18.48a19.89,19.89,0,0,0,7-15.66A23.63,23.63,0,0,0,220,257.46c-9.37,0-13.53,4.68-13.53,4.68-4.25,4.77-13,8.68-19.36,8.68h-7.74c-6.4,0-15.11-3.91-19.37-8.68,0,0-4.15-4.68-13.52-4.68a23.63,23.63,0,0,0-23.63,23.63c0,10.49,6.92,15.58,6.92,15.58,5.16,3.78,9.37,12.12,9.37,18.51v3.58c0,6.4-2.75,13.15-6.11,15s-14.18,9.64-20.57,9.64h-9.21c-5.27,0-10.91-1.57-13.87-3.72a6.58,6.58,0,0,1-1.49-1.42c-.38-.52-1-1.28-1.62-2.21-3-4.11-8.09-11.54-8.09-16.76v-4.07c0-5,2.56-11.12,6.13-15.37.25-.3.5-.58.76-.86a17.89,17.89,0,0,1,2.5-2.25s.19-.14.52-.43a18.11,18.11,0,0,0,1.94-2l0,0a20.61,20.61,0,0,0,4.53-13.16c0-.15,0-.29,0-.44a.06.06,0,0,0,0-.06,23.62,23.62,0,0,0-23.62-23.13c-9.37,0-13.53,4.68-13.53,4.68a23.69,23.69,0,0,1-5.69,4.49l-.54.3A23.77,23.77,0,0,0,50,291.83a8.84,8.84,0,0,1,2.07,2.37c.43.76,1.15,1.79,2,3,3.5,4.91,9.5,12.86,9.5,18v3.55c0,5.08-1.74,10.39-4.15,13.28a7.09,7.09,0,0,1-2,1.72c-.83.45-2.09,1.25-3.63,2.22a23.52,23.52,0,0,0-5.19,27.08,19,19,0,0,1,4.4,4.74A21.08,21.08,0,0,0,64.48,376a20.63,20.63,0,0,0,11.74-.17,21.09,21.09,0,0,0,10.82-8,18.72,18.72,0,0,1,4.24-4.62c3.9-3.11,9.11-5.25,13.55-5.25h6c6.4,0,14.4,4.44,17.79,9.87a20.86,20.86,0,0,0,17,8.95,23.63,23.63,0,0,0,23.63-23.63c0-10.23-6.37-15.12-6.37-15.12-5.07-3.89-9.22-12.32-9.22-18.71v-4c0-6.4,3-13.56,6.76-15.93s14.08-12,20.48-12h4.68c6.4,0,13.42,3.11,15.6,6.91s11.51,14.61,11.51,21v3.57c0,6.39-4.3,14.61-9.56,18.25a20.18,20.18,0,0,0-7.62,16.1,23.63,23.63,0,0,0,23.63,23.63c10.34,0,15.32-6.62,15.32-6.62,3.85-5.11,12.23-9.3,18.63-9.3h15.76c6.39,0,14.77,4.19,18.62,9.3,0,0,5,6.62,15.32,6.62a23.63,23.63,0,0,0,23.64-23.63c0-10-5.94-14.74-5.94-14.74-5-4-9.09-12.49-9.09-18.89V315c0-6.4,2.7-13.33,6-15.41s13.66-10.41,20.06-10.41H355.5c6.4,0,14.83,4.14,18.74,9.21,0,0,4.87,6.31,15.06,6.31a23.64,23.64,0,0,0,0-47.27Z"/><path class="cls-2" d="M94.55,280.3v.1a.66.66,0,0,0,0,.21l-.88,4.93c-.48,2.69-3.65,8.71-3.65,8.72s-1.6,1.84-3.53,4.07l-2.21,1.52a23.73,23.73,0,0,1-30.15-2.64A23.18,23.18,0,0,1,50,291.83,23.74,23.74,0,0,1,70.8,256.55,23.75,23.75,0,0,1,94.55,280.3Z"/><path class="cls-2" d="M93.55,353.09a23.28,23.28,0,0,1-2.27,10.08,23.55,23.55,0,1,1-5-27.12,23,23,0,0,1,3.11,3.63A23.35,23.35,0,0,1,93.55,353.09Z"/><path class="cls-2" d="M94.55,137.09A23.54,23.54,0,0,1,71,160.63c-6,0-7-.65-7-.65l-8.54-5.23-3.69-3.85-1.31-2.34a23.53,23.53,0,0,1,.83-24.3l2.47-3.8c4.23-2.69,7.76-4.91,7.83-4.94s2.92-1,6.18-2H71a23.53,23.53,0,0,1,23.54,23.54Z"/><circle class="cls-2" cx="71.01" cy="209.09" r="23.54"/></svg>